<svg version="1.2" xmlns="http://www.w3.org/2000/svg" viewBox="0 0 3000 3000" width="256" height="256">
	<style>
		.s0 { fill: #ffffff } 
		.s1 { fill: #ef393a } 
		.s2 { fill: #000305 } 
		.s3 { fill: #1e3b6c } 
	</style>
	<g id="Background">
		<path id="Path 0" class="s0" d="m1471 166.23c-0.28 0.27-9.72 0.78-21 1.14-11.28 0.35-29.72 1.3-41 2.1-11.28 0.81-25.9 1.94-32.5 2.52-6.6 0.59-19.76 1.95-29.25 3.04-9.49 1.08-23.89 2.9-32 4.03-8.11 1.13-21.28 3.12-29.25 4.43-7.97 1.31-21.92 3.77-31 5.47-9.08 1.7-23.7 4.64-32.5 6.53-8.8 1.89-24.55 5.47-35 7.96-10.45 2.48-24.17 5.9-30.5 7.59-6.33 1.69-19.83 5.49-30 8.45-10.17 2.96-29.08 8.84-42 13.07-12.92 4.22-31.83 10.74-42 14.48-10.17 3.74-25.92 9.72-35 13.29-9.08 3.56-25.05 10.15-35.5 14.63-10.45 4.48-27.77 12.27-38.5 17.31-10.73 5.04-27.83 13.39-38 18.56-10.17 5.18-25.92 13.48-35 18.46-9.08 4.97-23.48 13.1-32 18.06-8.52 4.96-20.23 11.92-26 15.47-5.77 3.55-17.92 11.22-27 17.05-9.08 5.83-23.92 15.74-33 22.04-9.08 6.29-21.45 15.04-27.5 19.45-6.05 4.41-16.63 12.3-23.5 17.53-6.88 5.23-20.15 15.67-29.5 23.22-9.35 7.54-20.6 16.73-25 20.43-4.4 3.7-15.65 13.58-25 21.95-9.35 8.37-25.59 23.5-36.09 33.61-10.51 10.12-26.26 25.82-35.02 34.9-8.75 9.08-19.11 19.88-23.01 24-3.9 4.13-12 13.07-17.99 19.87-5.99 6.8-12.46 14.28-14.39 16.61-1.93 2.34-7.8 9.38-13.05 15.64-5.25 6.26-12.26 14.76-15.57 18.88-3.31 4.13-12.11 15.6-19.56 25.5-7.46 9.9-18.39 24.75-24.29 33-5.91 8.25-17.16 24.67-25 36.5-7.84 11.83-17.99 27.58-22.55 35-4.57 7.42-9.65 15.75-11.3 18.5-1.65 2.75-4.44 7.48-6.2 10.5-1.75 3.02-5.13 8.88-7.49 13-2.37 4.13-6.77 12-9.78 17.5-3.02 5.5-7.28 13.38-9.48 17.5-2.2 4.13-9.05 17.63-15.24 30-6.18 12.38-14.61 29.92-18.73 39-4.13 9.08-10.23 22.8-13.57 30.5-3.33 7.7-9.87 23.67-14.53 35.5-4.66 11.83-11.39 29.6-14.96 39.5-3.56 9.9-9.48 27.22-13.16 38.5-3.67 11.28-9.53 30.4-13.03 42.5-3.49 12.1-9.52 34.83-13.4 50.5-3.87 15.67-9.52 40.88-12.55 56-3.03 15.13-6.85 35.83-8.51 46-1.65 10.17-4.11 26.6-5.47 36.5-1.36 9.9-3.4 26.55-4.52 37-1.13 10.45-2.71 27.33-3.51 37.5-0.81 10.17-2.01 27.95-2.68 39.5-0.67 11.55-1.22 41.47-1.23 66.5 0 25.03 0.54 54.95 1.22 66.5 0.67 11.55 1.88 29.33 2.69 39.5 0.8 10.17 2.38 27.05 3.51 37.5 1.12 10.45 3.16 27.1 4.52 37 1.36 9.9 3.82 26.33 5.47 36.5 1.66 10.17 5.49 30.88 8.52 46 3.02 15.13 8.61 40.1 12.41 55.5 3.81 15.4 9.44 36.78 12.52 47.5 3.09 10.72 7.87 26.7 10.64 35.5 2.77 8.8 7.53 23.2 10.57 32 3.05 8.8 8.14 22.97 11.31 31.5 3.18 8.53 8.93 23.38 12.79 33 3.86 9.63 9.24 22.67 11.97 29 2.72 6.33 8.45 19.15 12.72 28.5 4.27 9.35 12.25 26 17.73 37 5.48 11 12.91 25.63 16.51 32.5 3.6 6.88 6.87 12.95 7.26 13.5 0.4 0.55 2.65 4.6 5 9 2.36 4.4 6.79 12.28 9.84 17.5 3.06 5.22 8.79 14.9 12.74 21.5 3.95 6.6 9.11 15.15 11.45 19 2.35 3.85 11.13 17.35 19.51 30 8.38 12.65 20.08 29.75 25.99 38 5.92 8.25 15.51 21.3 21.31 29 5.81 7.7 15.51 20.3 21.56 28 6.06 7.7 14.79 18.5 19.42 24 4.62 5.5 15.49 18.1 24.15 28 8.65 9.9 22.67 25.15 31.13 33.88 8.47 8.73 15.69 16.38 16.06 17 0.36 0.62 12.96 12.87 28 27.24 15.03 14.36 33.9 31.91 41.92 39 8.01 7.08 18.59 16.27 23.5 20.42 4.9 4.15 15.67 12.95 23.92 19.56 8.25 6.6 20.63 16.29 27.5 21.52 6.88 5.23 19.02 14.22 27 19.98 7.98 5.76 20.35 14.51 27.5 19.43 7.15 4.93 17.27 11.75 22.5 15.16 5.23 3.41 17.83 11.36 28 17.67 10.17 6.3 23.67 14.49 30 18.18 6.33 3.7 20.05 11.45 30.5 17.22 10.45 5.77 30.7 16.35 45 23.51 14.3 7.15 31.85 15.7 39 18.99 7.15 3.29 21.33 9.56 31.5 13.95 10.17 4.38 24.13 10.23 31 13 6.88 2.77 19.7 7.7 28.5 10.97 8.8 3.26 22.53 8.19 30.5 10.94 7.97 2.75 22.83 7.65 33 10.89 10.17 3.24 25.47 7.9 34 10.36 8.53 2.46 24.05 6.71 34.5 9.44 10.45 2.73 25.97 6.56 34.5 8.51 8.53 1.95 22.03 4.91 30 6.59 7.97 1.68 21.92 4.39 31 6.03 9.08 1.65 23.47 4.11 32 5.47 8.53 1.37 20.67 3.17 27 4.01 6.33 0.85 19.15 2.44 28.5 3.54 9.35 1.1 24.65 2.67 34 3.49 9.35 0.81 23.53 1.93 31.5 2.49 7.97 0.56 24.17 1.37 36 1.79 11.83 0.42 34.78 0.77 51 0.77 16.22 0 39.17-0.35 51-0.77 11.83-0.42 28.03-1.23 36-1.79 7.97-0.56 22.15-1.68 31.5-2.49 9.35-0.82 24.65-2.39 34-3.49 9.35-1.1 22.17-2.69 28.5-3.54 6.33-0.84 18.47-2.63 27-3.99 8.53-1.35 22.92-3.83 32-5.51 9.08-1.67 23.03-4.4 31-6.05 7.97-1.66 19.45-4.13 25.5-5.49 6.05-1.36 19.78-4.69 30.5-7.38 10.72-2.7 29.63-7.81 42-11.36 12.38-3.55 36-10.96 52.5-16.46 16.5-5.5 37.2-12.69 46-15.97 8.8-3.28 21.63-8.23 28.5-11 6.88-2.77 20.83-8.62 31-13 10.17-4.39 24.57-10.77 32-14.18 7.43-3.42 24.75-11.84 38.5-18.73 13.75-6.88 27.93-14.11 31.5-16.07 3.57-1.96 12.57-6.92 20-11.03 7.43-4.11 18.45-10.38 24.5-13.94 6.05-3.55 19.32-11.62 29.5-17.92 10.18-6.3 22.78-14.24 28-17.65 5.23-3.4 14.68-9.76 21-14.12 6.33-4.36 18.7-13.12 27.5-19.46 8.8-6.34 21.63-15.8 28.5-21.02 6.88-5.22 20.15-15.65 29.5-23.2 9.35-7.54 20.6-16.74 25-20.45 4.4-3.71 15.43-13.37 24.5-21.46 9.07-8.1 25.28-23.14 36-33.41 10.72-10.28 21.26-20.57 23.41-22.88 2.15-2.3 10.03-10.49 17.51-18.19 7.48-7.7 16.52-17.16 20.09-21.02 3.57-3.86 8.07-8.81 9.99-11 1.93-2.19 7.8-8.93 13.06-14.98 5.25-6.05 13.15-15.28 17.55-20.5 4.4-5.22 12.94-15.8 18.99-23.5 6.05-7.7 14.57-18.72 18.94-24.5 4.37-5.78 13.5-18.15 20.28-27.5 6.78-9.35 19.21-27.35 27.62-40 8.42-12.65 19.03-29.07 23.58-36.5 4.56-7.43 12.63-20.93 17.94-30 5.31-9.07 12.62-21.9 16.26-28.5 3.63-6.6 8.5-15.6 10.82-20 2.31-4.4 8.94-17.45 14.72-29 5.78-11.55 13.19-26.85 16.46-34 3.28-7.15 9.1-20.2 12.95-29 3.85-8.8 10.15-23.87 14.01-33.5 3.86-9.62 9.85-25.15 13.33-34.5 3.47-9.35 8.55-23.53 11.29-31.5 2.74-7.97 7.25-21.7 10.03-30.5 2.78-8.8 7.57-24.78 10.65-35.5 3.08-10.72 8.71-32.1 12.53-47.5 3.81-15.4 9.39-40.37 12.4-55.5 3.02-15.12 6.84-35.83 8.5-46 1.67-10.17 3.92-24.8 5-32.5 1.09-7.7 2.88-21.87 3.99-31.5 1.11-9.62 2.69-25.37 3.53-35 0.83-9.62 1.96-24.25 2.52-32.5 0.55-8.25 1.51-29.17 2.13-46.5 0.64-17.93 0.84-43.99 0.46-60.5-0.36-15.95-1.31-40.47-2.11-54.5-0.8-14.03-2.13-32.92-2.94-42-0.82-9.08-2.19-22.8-3.05-30.5-0.87-7.7-2.68-22.1-4.03-32-1.35-9.9-3.82-26.33-5.49-36.5-1.66-10.17-5.51-30.87-8.54-46-3.03-15.12-7.69-36.5-10.36-47.5-2.67-11-6.95-27.87-9.52-37.5-2.56-9.62-7.52-26.95-11.02-38.5-3.5-11.55-8.24-26.62-10.54-33.5-2.29-6.87-7.09-20.6-10.65-30.5-3.56-9.9-9.75-26.33-13.75-36.5-4-10.17-10.54-26.15-14.53-35.5-3.99-9.35-10.63-24.42-14.76-33.5-4.13-9.08-12.22-25.95-17.98-37.5-5.77-11.55-12.97-25.73-16.02-31.5-3.04-5.77-7.05-13.09-8.89-16.25-1.85-3.16-3.36-5.98-3.36-6.25 0-0.27-3.98-7.36-8.84-15.75-4.85-8.39-12.36-21.1-16.68-28.25-4.32-7.15-12.78-20.65-18.82-30-6.03-9.35-14.81-22.62-19.52-29.5-4.7-6.87-13.25-19.02-18.99-27-5.74-7.98-15.87-21.7-22.49-30.5-6.63-8.8-15.66-20.5-20.08-26-4.42-5.5-10.52-12.96-13.56-16.58-3.03-3.61-7.77-9.24-10.51-12.5-2.75-3.25-9.72-11.31-15.5-17.91-5.78-6.59-13.66-15.36-17.51-19.5-3.85-4.13-12.62-13.26-19.5-20.3-6.87-7.03-12.6-13.11-12.72-13.5-0.12-0.39-12.27-12.25-27-26.35-14.73-14.11-33.34-31.43-41.35-38.5-8.02-7.07-18.6-16.25-23.5-20.4-4.91-4.15-15.68-12.95-23.93-19.56-8.25-6.6-20.63-16.29-27.5-21.52-6.88-5.23-19.03-14.22-27-19.99-7.97-5.77-20.35-14.51-27.5-19.44-7.15-4.92-19.52-13.18-27.5-18.36-7.97-5.18-16.53-10.62-19-12.11-2.47-1.48-8.32-5.06-13-7.94-4.68-2.89-14.35-8.66-21.5-12.83-7.15-4.17-18.18-10.48-24.5-14.01-6.32-3.54-20.28-11.04-31-16.67-10.72-5.64-24-12.4-29.5-15.03-5.5-2.64-15.63-7.46-22.5-10.73-6.88-3.27-22.4-10.22-34.5-15.45-12.1-5.22-29.42-12.42-38.5-15.99-9.08-3.57-23.25-8.98-31.5-12.02-8.25-3.03-20.85-7.53-28-10-7.15-2.46-21.33-7.09-31.5-10.29-10.17-3.2-24.8-7.64-32.5-9.87-7.7-2.23-19.17-5.43-25.5-7.12-6.33-1.68-20.05-5.1-30.5-7.58-10.45-2.49-26.2-6.06-35-7.93-8.8-1.88-23.2-4.77-32-6.43-8.8-1.66-22.75-4.13-31-5.49-8.25-1.35-23.33-3.6-33.5-4.99-10.17-1.38-24.8-3.21-32.5-4.06-7.7-0.85-21.42-2.19-30.5-2.99-9.08-0.8-24.83-1.94-35-2.53-10.17-0.59-20.97-1.28-24-1.53-3.03-0.26-23.95-0.76-46.5-1.12-22.55-0.35-41.22-0.42-41.5-0.15z"/>
		<path id="Path 1" class="s1" d="m255.58 1286.75c-0.31 1.51-1.44 8.38-2.52 15.25-1.07 6.88-2.67 17.9-3.54 24.5-0.87 6.6-1.8 13.24-2.05 14.75l-0.47 2.75h514l-0.5-59.5-504.36-0.5zm1984.42 27.25v30c500.28 0 512.98-0.09 512.58-1.75-0.23-0.96-0.71-4.45-1.06-7.75-0.36-3.3-2-15-3.65-26-1.65-11-3.19-21.01-3.43-22.25l-0.44-2.25h-504zm-1961.01 507.25c0 0.14 2.89 10.37 6.44 22.75 3.55 12.37 7.49 25.77 8.76 29.77l2.31 7.28 464.5-0.05v-60c-373.55 0-482 0.11-482.01 0.25zm1961.01 29.75v30l463.5 0.05c3.58-11.28 7.52-24.68 11.07-37.05 3.54-12.38 6.44-22.61 6.44-22.75-0.01-0.14-108.24-0.25-240.51-0.25h-240.5z"/>
		<path id="Path 2" fill-rule="evenodd" class="s2" d="m1524 573.58c4.13 0.27 9.75 0.99 12.5 1.59 2.75 0.6 7.7 2.32 11 3.81 3.3 1.49 8.25 4.74 11 7.23 2.75 2.48 6.1 6.72 7.44 9.4 1.34 2.69 2.66 7.36 2.92 10.39 0.47 5.42 0.44 5.49-1.94 4.82-1.33-0.38-6.12-1.05-18.86-2.32l-1.5-4c-0.83-2.2-2.98-5.44-4.78-7.21-1.8-1.76-5.31-3.91-7.78-4.77-2.47-0.86-7.42-1.55-11-1.53-4.71 0.02-7.87 0.68-11.5 2.4-2.75 1.3-6.44 3.88-8.2 5.74-1.76 1.85-4.23 5.62-5.49 8.37-1.98 4.31-2.29 6.58-2.26 16.5 0.03 9.35 0.44 12.53 2.2 17 1.18 3.02 3.86 7.27 5.95 9.43 2.09 2.16 5.6 4.74 7.8 5.73 2.62 1.18 6.41 1.8 11 1.8 4.71 0 8.31-0.61 11-1.86 2.2-1.01 5.22-3.14 6.71-4.72 1.49-1.59 3.34-4.68 5.52-10.88l7.38 0.28c4.07 0.15 8.85 0.49 10.64 0.75 2.95 0.43 3.2 0.72 2.66 3.22-0.32 1.51-1.85 5.45-3.39 8.75-1.77 3.77-4.62 7.61-7.66 10.32-2.68 2.37-7.11 5.4-9.86 6.73-2.75 1.33-7.47 2.88-10.5 3.45-3.03 0.56-8.88 1.01-13 1-4.13-0.02-10.42-0.72-14-1.57-3.58-0.85-8.73-2.76-11.45-4.24-2.72-1.48-7.25-4.94-10.07-7.69-2.94-2.87-6.48-7.77-8.31-11.5-1.75-3.58-3.85-9.65-4.66-13.5-0.81-3.85-1.48-10.38-1.48-14.5 0-4.13 0.69-10.42 1.54-14 0.85-3.58 2.76-8.72 4.24-11.44 1.48-2.72 4.74-6.99 7.24-9.5 2.5-2.51 7.45-6.1 11-7.97 3.57-1.89 9.58-3.99 13.45-4.71 3.91-0.72 10.31-1.08 14.5-0.8zm-68.5 1.38l0.74 3.77c0.41 2.07 0.74 5.68 0.76 12.27l-8.25 0.48c-4.54 0.26-17.7 1.19-29.25 2.06-11.55 0.88-21.14 1.68-21.31 1.78-0.17 0.1 0.2 4.9 0.83 10.68 0.63 5.77 1.37 10.72 1.63 11 0.27 0.27 7.1-0.06 15.17-0.74 8.07-0.69 19.7-1.59 36.99-2.76l0.68 5.5c0.38 3.02 0.53 6.85 0.01 11.5l-14 0.7c-7.7 0.38-19.17 1.21-25.5 1.84-6.33 0.63-11.72 1.35-12 1.6-0.28 0.24 0.06 3.8 0.75 7.9 0.69 4.1 1.25 9.37 1.23 15.96l9.26-0.82c5.09-0.45 15.79-1.23 23.76-1.72 7.97-0.5 16.86-0.92 25-0.96l0.01 16.5-20.26 1.19c-11.14 0.66-28.2 2.01-37.92 3-9.73 1-18.05 1.43-18.5 0.97-0.46-0.47-3.16-20.04-6-43.5-2.84-23.46-5.43-44.8-5.75-47.41-0.58-4.74-0.58-4.75 2.67-5.22 1.79-0.26 10.22-1.18 18.75-2.05 8.53-0.87 20.9-1.94 27.5-2.38 6.6-0.45 16.72-0.88 33-1.14zm140.64 4.71c2.4 0.27 12.91 1.58 23.36 2.93 10.45 1.34 26.88 3.84 36.5 5.54 9.63 1.71 17.77 3.39 18.1 3.73 0.33 0.35-0.01 4.12-0.75 8.38-1.26 7.22-1.5 7.72-3.6 7.29-1.24-0.25-8.33-1.57-15.75-2.93-7.42-1.36-18.34-3.17-24.25-4.04-5.91-0.86-11.99-1.57-13.5-1.58-2.7-0.01-2.77 0.16-3.99 8.75-0.69 4.82-1.25 9.77-1.25 11.01-0.01 1.78 0.56 2.26 2.74 2.29 1.51 0.01 12.94 1.7 25.4 3.75 12.46 2.04 22.87 3.93 23.15 4.21 0.28 0.27-0.15 3.87-0.94 8-0.8 4.12-1.54 7.58-1.65 7.68-0.12 0.09-3.36-0.49-7.21-1.31-3.85-0.81-13.97-2.58-22.5-3.92-8.53-1.34-16.96-2.45-18.75-2.45-1.79 0-3.25 0.34-3.25 0.75 0 0.41-0.45 4.57-1 9.25-0.55 4.67-1.22 9.96-1.5 11.75-0.5 3.22-0.46 3.26 4.25 3.83 2.61 0.31 11.72 1.68 20.25 3.03 8.53 1.36 18.88 3.16 23 4.01 4.13 0.84 7.88 1.84 8.34 2.21 0.45 0.37 0.12 4.16-0.75 8.42-1.1 5.33-1.98 7.6-2.84 7.27-0.69-0.26-7.78-1.62-15.75-3.02-7.97-1.39-20.35-3.4-27.5-4.46-7.15-1.06-17.39-2.4-22.75-2.98-5.36-0.58-9.75-1.51-9.75-2.06 0-0.55 2.25-22.15 5-48 2.75-25.85 4.95-47.18 4.89-47.4-0.06-0.23 1.85-0.19 4.25 0.07zm-238.16 4.69c1.02 0.09 1.72 1.89 2.23 5.64 0.41 3.02 0.98 6.74 1.27 8.25 0.51 2.69 0.4 2.76-5.23 3.36-3.16 0.34-10.47 1.48-16.25 2.54-5.78 1.06-10.6 2.02-10.72 2.14-0.12 0.11 1.12 7.18 2.76 15.71 1.64 8.52 4.78 25.85 6.99 38.5 2.22 12.65 3.68 23.31 3.25 23.68-0.43 0.38-5.06 1.41-10.28 2.29-5.22 0.87-9.79 1.24-10.15 0.81-0.35-0.43-4.08-17.88-8.29-38.78-4.2-20.9-7.73-38.14-7.85-38.32-0.12-0.17-7.63 1.32-16.71 3.31-9.08 2-16.8 3.26-17.17 2.82-0.37-0.45-1.38-3.51-2.23-6.81-0.86-3.3-1.57-6.56-1.58-7.25-0.01-0.78 4.73-2.34 12.73-4.19 7.01-1.62 18.6-4.07 25.75-5.46 7.15-1.38 18.85-3.44 26-4.57 7.15-1.13 15.47-2.45 18.5-2.94 3.03-0.48 6.17-0.81 6.98-0.73zm338.86 12.65c0.36 0.01 6.51 1.37 13.66 3.02 7.15 1.65 18.17 4.32 24.5 5.95 6.33 1.62 13.75 3.93 16.5 5.13 2.75 1.2 7.36 3.69 10.25 5.53 2.89 1.85 6.55 5.27 8.14 7.61 1.59 2.34 3.84 7.06 5 10.5 1.47 4.35 2.11 8.76 2.11 14.5 0 5.29-0.74 10.94-2.07 15.75-1.14 4.12-3.73 10.61-5.75 14.42-2.03 3.81-6.15 9.36-9.18 12.34-3.09 3.05-8.34 6.81-11.98 8.58-5.85 2.85-7.3 3.15-15 3.01-6.66-0.13-13.66-1.43-32.15-6-12.99-3.22-24.02-6.22-24.5-6.66-0.49-0.46 3.02-18.25 7.98-40.5 4.87-21.83 9.53-42.73 10.34-46.44 0.82-3.71 1.79-6.74 2.15-6.74zm-459.34 14.29c6.48 0.22 9.14 0.83 14 3.22 4.24 2.08 6.88 4.23 9 7.31 1.65 2.41 3.56 5.68 4.25 7.27 1.19 2.76 1.12 2.93-1.5 3.48-1.51 0.32-6.35 1.45-10.75 2.5-7.59 1.82-8.05 1.83-8.95 0.17-0.52-0.96-1.98-2.76-3.25-4-1.26-1.24-4.21-2.74-6.55-3.33-2.9-0.74-6-0.78-9.75-0.12-3.03 0.54-7.75 1.92-10.5 3.08-2.75 1.15-6.58 3.7-8.5 5.67-2.83 2.88-3.5 4.33-3.5 7.59 0 3.25 0.58 4.53 3 6.57 2.9 2.46 3.34 2.52 13.5 2.01 5.78-0.29 16.35-1.03 23.5-1.65 9.22-0.79 14.46-0.81 18-0.07 2.75 0.58 6.78 2.06 8.96 3.28 2.17 1.22 5.01 3.79 6.3 5.72 1.29 1.92 3.06 5.97 3.92 9 0.96 3.36 1.38 7.45 1.07 10.5-0.28 2.75-1.41 6.8-2.5 9-1.1 2.2-4.19 6.16-6.88 8.79-2.84 2.8-8.2 6.43-12.87 8.72-4.4 2.16-12.05 4.89-17 6.06-6.65 1.58-11.22 2.04-17.5 1.75-6.58-0.29-9.74-0.98-14-3.02-3.03-1.45-7.19-4.47-9.25-6.72-2.06-2.24-4.4-5.32-6.64-9.58l20.89-7.5 1.75 2.98c0.96 1.64 3.33 3.88 5.25 4.97 2.37 1.34 5.44 2 9.5 2.04 3.3 0.03 8.92-0.83 12.5-1.91 4.28-1.29 8.12-3.35 11.25-6.02 3.14-2.69 4.92-5.07 5.25-7.06 0.29-1.76-0.23-4.55-1.25-6.74-0.96-2.06-2.88-4.3-4.25-4.99-1.38-0.68-5.88-1.25-10-1.25-4.13-0.01-13.35 0.71-20.5 1.59-7.15 0.88-16.15 1.4-20 1.15-4.44-0.28-8.56-1.23-11.25-2.6-2.74-1.39-5.32-3.85-7.26-6.91-1.65-2.61-3.52-7-4.15-9.75-0.91-3.93-0.87-6.29 0.18-11 0.91-4.1 2.4-7.24 4.71-9.92 1.85-2.16 5.94-5.79 9.07-8.07 3.14-2.27 8.4-5.17 11.7-6.43 3.3-1.26 9.83-3.14 14.5-4.18 5.42-1.19 11.4-1.77 16.5-1.6zm593.5 28.76c3.58-0.02 10.33 0.88 15 2.01 4.67 1.12 11.64 3.71 15.48 5.74 3.84 2.03 9.86 6.39 13.37 9.69 3.52 3.3 7.55 8.02 8.98 10.5 1.42 2.47 3.39 7.09 4.38 10.25 1.02 3.29 1.79 8.85 1.8 13 0 3.99-0.71 9.95-1.57 13.25-0.86 3.3-3 8.7-4.75 12-1.76 3.3-5.89 8.72-9.19 12.05-3.92 3.95-8.6 7.36-13.5 9.81-5.26 2.63-9.89 4.1-15.5 4.9-6.15 0.87-9.62 0.85-15-0.09-3.85-0.68-10.59-2.91-14.98-4.95-4.39-2.05-10.69-5.88-14-8.52-3.31-2.65-7.62-7.15-9.57-10-1.96-2.86-4.59-7.9-5.85-11.2-1.27-3.31-2.54-9.36-2.84-13.5-0.36-5.06-0.01-9.94 1.09-15 0.89-4.13 2.94-10.2 4.56-13.5 1.61-3.3 4.92-8.25 7.35-11 2.42-2.75 6.84-6.58 9.81-8.5 2.97-1.93 8.33-4.26 11.91-5.19 3.59-0.93 9.44-1.72 13.02-1.75zm-704 5.98c0.28-0.04 8.6 8.34 18.5 18.63 9.9 10.28 21.33 22.33 25.41 26.76 4.08 4.44 11.61 12.91 16.75 18.82 5.14 5.91 9.34 11.09 9.34 11.5 0 0.41-4.39 2.43-19.5 8.23l-14.18-15.48-7.91 3.33c-4.35 1.84-12.77 5.66-29.53 13.67l0.69 8c0.38 4.4 0.74 9 0.81 10.21 0.1 1.84-1.51 3.02-9.61 7-5.35 2.64-9.91 4.56-10.14 4.29-0.23-0.28-1.13-9.95-2.01-21.5-0.88-11.55-2.08-34.73-2.67-51.5-0.58-16.78-0.7-30.79-0.26-31.15 0.45-0.36 5.98-2.92 12.31-5.69 6.33-2.77 11.72-5.08 12-5.12zm796.24 32.86l12.63 6.64c6.95 3.65 20.23 10.99 29.53 16.3 9.29 5.31 19.05 11.68 21.69 14.16 2.63 2.47 5.71 6.52 6.83 9 1.25 2.76 2.04 6.63 2.05 10 0.01 3.69-0.76 7.15-2.32 10.5-1.29 2.75-4.09 6.6-6.24 8.56-2.15 1.96-5.71 4.16-7.91 4.88-2.2 0.73-6.59 1.15-9.75 0.94-3.16-0.21-5.74-0.27-5.75-0.13 0 0.14 1.12 2.16 2.49 4.5 1.44 2.46 2.49 5.83 2.5 8 0 2.07-1.17 6.1-2.61 9-1.45 2.89-4.37 8.29-6.5 12-2.99 5.19-3.82 7.66-3.63 10.67 0.14 2.16-0.11 4.3-0.54 4.75-0.44 0.46-2.02 0.03-3.5-0.95-1.49-0.98-6-3.68-10.03-6-7.15-4.12-7.31-4.3-6.9-7.72 0.22-1.93 2.17-6.54 4.32-10.25 2.14-3.72 4.92-8.67 6.16-11 1.24-2.34 2.25-5.71 2.25-7.5-0.01-2.59-0.9-4.01-4.36-7-2.39-2.06-9.48-6.57-15.75-10.01-6.27-3.45-11.45-6.15-11.51-6-0.07 0.14-3.83 7.23-8.38 15.76-4.54 8.52-8.54 15.84-8.88 16.26-0.35 0.43-5.02-1.49-20.13-9.26l18.63-36.75c10.25-20.21 20.21-39.58 22.13-43.05zm-879.5 12.2c2.95-0.06 7.55 0.74 10.5 1.83 3.07 1.13 6.6 3.41 8.5 5.5 1.79 1.96 3.76 5.26 4.37 7.32 0.62 2.06 0.85 5.32 0.52 7.25-0.33 1.92-1.72 5.75-3.08 8.5-1.37 2.75-2.23 5.22-1.92 5.5 0.31 0.27 3.55 0.84 7.21 1.27 4.13 0.47 8.26 1.7 10.9 3.25 2.43 1.41 5.33 4.3 6.77 6.73 1.58 2.66 2.74 6.49 3.11 10.25 0.33 3.3 0.11 7.8-0.48 10-0.59 2.2-2.55 6.22-4.36 8.93-1.81 2.71-5.54 6.61-8.29 8.65-2.75 2.05-10.85 7.08-18 11.2-7.15 4.11-17.5 10.25-23 13.64-5.5 3.4-10.26 5.82-10.58 5.38-0.33-0.44-11.75-18.13-25.4-39.3-13.64-21.18-24.97-39.06-25.16-39.75-0.2-0.69 2.23-2.98 5.39-5.09 3.16-2.11 12.95-8.12 21.75-13.36 8.8-5.24 18.81-10.93 22.25-12.66 3.44-1.73 7.94-3.55 10-4.04 2.06-0.5 6.11-0.95 9-1zm-116 66.89c0.14 0.01 5.99 3.46 13 7.68 7.01 4.22 18.83 11.5 26.25 16.17 7.43 4.67 20.7 13.41 29.5 19.43 8.8 6.02 16.6 11.46 17.32 12.09 1.05 0.9-0.35 2.33-6.75 6.89-4.44 3.16-8.74 5.97-9.57 6.25-0.82 0.27-5.1-1.98-9.5-5-7.92-5.45-8.03-5.49-10.75-3.85-1.51 0.91-9.16 6.54-31.25 23.35l1.61 5.25c0.88 2.89 2.46 7.39 5.39 14.75l-8.5 7c-4.67 3.85-8.84 7.01-9.25 7.01-0.41 0.01-4.23-11.12-8.49-24.75-4.27-13.62-10.68-35.79-14.26-49.26-3.58-13.48-6.58-25.02-6.66-25.65-0.08-0.63 4.76-4.8 10.76-9.26 5.99-4.45 11.01-8.1 11.15-8.1zm1124.75 0.97c0.55-0.02 4.38 2.59 8.5 5.79 4.13 3.2 8.96 6.82 14 10.25l-3.06 11.25c-1.68 6.19-5.1 18.45-7.61 27.25-2.5 8.8-7.87 26.24-11.94 38.75-4.06 12.51-7.73 22.76-8.14 22.77-0.41 0.01-4.35-2.95-8.75-6.58-4.4-3.62-8.12-7.12-8.27-7.77-0.15-0.64 1.11-5.22 5.86-19.17l-3.79-3.36c-2.09-1.84-9.09-7.35-15.55-12.25-6.46-4.89-12.31-8.89-13-8.89-0.69 0-4.74 2.25-9 5-4.26 2.75-8.09 4.99-8.5 4.98-0.41 0-4.93-2.82-10.04-6.25-5.11-3.43-9.27-6.34-9.25-6.48 0.02-0.14 9.83-6.73 21.79-14.64 11.96-7.92 31.65-20.3 43.75-27.51 12.1-7.21 22.45-13.13 23-13.14zm-992 296.68c2.2 0.33 5.43 1.33 7.17 2.23 1.74 0.89 15.18 11.75 29.86 24.13 14.69 12.37 27.78 23.06 29.09 23.75 1.31 0.69 2.61 1.02 2.88 0.75 0.28-0.28-2.44-5.34-6.04-11.25-4.51-7.42-6.72-12.15-7.13-15.25-0.4-3.14-0.09-5.49 1.05-7.75 0.89-1.79 2.86-4.14 4.37-5.22 1.51-1.08 4.33-2.28 6.25-2.65 2.16-0.43 4.84-0.17 7 0.67 1.93 0.75 16.55 9.89 32.5 20.31 15.95 10.42 36.43 23.91 45.5 29.96 9.08 6.06 23.7 16.07 32.5 22.25 8.8 6.18 18.7 13.59 22 16.47 3.3 2.88 14.1 13.13 24 22.76 9.9 9.64 21.5 21.39 25.78 26.11 4.28 4.72 7.56 8.81 7.28 9.09-0.28 0.27-4.47-3.33-9.32-8-4.84-4.68-13.29-12.27-18.77-16.87-5.48-4.6-16.72-13.41-24.97-19.58-8.25-6.17-19.72-14.38-25.5-18.23-5.77-3.86-14.21-9.33-18.75-12.17-4.54-2.83-12.41-7.47-17.5-10.31-5.09-2.83-15.32-8.18-22.75-11.89-7.42-3.71-17.55-8.37-22.5-10.36-4.95-1.99-9.11-3.61-9.25-3.6-0.14 0-0.23 0.8-0.22 1.76 0.02 0.96 11.9 13.67 26.4 28.25 20.05 20.15 26.59 27.34 27.33 30 0.71 2.58 0.59 4.42-0.46 7-0.78 1.92-2.18 4.3-3.11 5.27-0.93 0.98-2.81 2.26-4.19 2.86-1.79 0.77-3.84 0.76-7.25-0.03-2.61-0.61-12.51-5.2-22-10.22-9.49-5.01-25.8-13.64-36.25-19.16-10.45-5.52-20.24-10.87-21.75-11.88-2.08-1.39-2.9-1.54-3.36-0.59-0.34 0.69 0 1.73 0.75 2.32 0.75 0.59 6.99 6.01 13.86 12.06 6.88 6.05 23.3 20 36.5 31.01 13.2 11.01 27.78 23.58 32.41 27.94 4.62 4.35 10.62 10.84 13.34 14.42 2.71 3.57 6.89 10.55 9.28 15.5 2.39 4.95 5.05 11.7 5.89 15 0.85 3.3 1.55 8.02 1.55 10.5 0 2.47-0.47 6.07-1.04 8-0.57 1.92-2.89 5.97-5.16 9-2.26 3.02-15.58 19.45-29.59 36.5-14.01 17.05-27.54 33.17-30.07 35.83-2.54 2.65-8.21 7.37-12.61 10.48-4.4 3.11-11.82 9.51-16.5 14.23-4.67 4.72-11.52 12.82-15.22 18.02-3.81 5.36-12.02 19.82-18.97 33.44-6.74 13.2-15.67 29.62-19.84 36.5-4.17 6.87-10.77 17.22-14.65 23-3.89 5.77-15.23 21.97-25.21 36-9.98 14.02-22.74 31.8-28.36 39.5-5.62 7.7-14.72 19.61-20.23 26.46-5.51 6.86-13.46 16.08-17.66 20.5-4.21 4.42-15 14.56-23.98 22.54-8.99 7.97-19.31 17.42-22.93 21-4.59 4.53-7.7 8.77-10.27 14-2.4 4.88-3.91 9.59-4.32 13.5-0.42 4.03-0.09 8.46 1.03 13.5 0.96 4.39 3.41 10.72 5.88 15.27 2.33 4.28 6.71 10.96 9.73 14.85 3.03 3.89 8.65 9.63 12.5 12.74 3.85 3.12 9.48 7.11 12.5 8.86 3.03 1.75 8.88 4.34 13 5.75 4.13 1.41 11.1 3.09 15.5 3.74 6.17 0.92 9.95 0.92 16.5 0 4.68-0.65 11.65-2.27 15.5-3.6 3.85-1.32 10.83-4.23 15.5-6.44 4.68-2.22 12.1-5.08 16.5-6.35 7.07-2.05 10.04-2.31 25.5-2.25 15.25 0.07 19.11 0.43 30 2.84 6.88 1.52 27.58 6.8 46 11.74 18.43 4.95 41.38 10.93 51 13.31 9.63 2.38 21.78 5.03 27 5.9 5.23 0.87 14.45 2.09 20.5 2.71 6.05 0.62 26.3 1.24 45 1.39 26.5 0.2 36.1 0.63 43.5 1.94 5.23 0.93 16.7 3.05 25.5 4.71 8.8 1.66 22.3 4.59 30 6.51 7.7 1.92 18.5 4.86 24 6.53 5.5 1.68 13.6 4.92 18 7.19 4.4 2.28 11.15 6.65 15 9.72 3.85 3.06 11.23 9.58 16.39 14.5 5.16 4.92 12.82 13.21 17.02 18.44 4.2 5.22 10.13 13.32 13.18 18 3.05 4.67 7.38 11.87 9.62 16 2.24 4.12 5.9 11.77 8.13 17 2.24 5.22 4.76 12.2 5.6 15.5 0.84 3.3 2.2 11.17 3.02 17.5 0.81 6.32 2.62 15.44 4.01 20.25 1.39 4.81 4.16 12.01 6.16 16 1.99 3.99 5.48 9.84 7.75 13.01 2.27 3.16 3.9 5.99 3.62 6.26-0.27 0.28-3.9-2.98-8.05-7.25-5.6-5.76-8.65-9.97-11.77-16.27-3.06-6.19-5.01-12.24-7.19-22.25-1.64-7.56-3.94-16.56-5.1-20-1.16-3.44-4.11-10.53-6.56-15.75-2.44-5.23-7.75-14.45-11.8-20.5-4.04-6.05-11.15-15.5-15.8-21-4.64-5.5-12.9-14.3-18.34-19.56-5.44-5.25-13.26-11.82-17.39-14.6-4.12-2.78-8.85-5.73-10.5-6.56-1.65-0.83-5.81-2.47-9.25-3.65-3.44-1.17-12.89-3.25-21-4.63-8.11-1.37-25.77-4.77-39.25-7.55-13.47-2.78-28.55-5.31-33.5-5.62-5.9-0.37-13.3 0.02-21.5 1.12-6.87 0.93-19.92 1.94-29 2.26-9.46 0.32-22.89 0.06-31.5-0.63-8.25-0.65-21.52-2.09-29.5-3.2-7.97-1.11-21.02-3.37-29-5.02-7.97-1.65-27.55-6.3-43.5-10.33-15.95-4.02-33.95-8.03-40-8.9-6.05-0.88-17.75-2.11-41-3.91l-12 6.02c-6.6 3.31-15.82 7.37-20.5 9.02-4.67 1.65-12.32 3.84-17 4.86-6.35 1.38-12.28 1.82-23.5 1.74-12.5-0.1-16.58-0.53-24.5-2.6-5.22-1.36-14-4.44-19.5-6.83-5.5-2.4-14.05-7.07-19-10.37-4.95-3.3-13.53-10.52-19.06-16.03-6.02-6-12.59-13.85-16.35-19.53-3.46-5.23-7.79-12.65-9.63-16.5-1.84-3.85-4.36-10.6-5.61-15-1.83-6.45-2.27-10.53-2.28-21-0.01-9.41 0.48-14.8 1.77-19.5 0.98-3.58 3.74-10.55 6.14-15.5 2.41-4.97 7.42-12.8 11.19-17.48 4.39-5.45 11.12-11.94 18.83-18.16 6.6-5.32 17.42-15.22 24.04-22.02 6.62-6.79 15.2-16.17 19.06-20.84 3.86-4.68 10.39-13 14.52-18.5 4.13-5.5 17.41-23.95 29.51-41 12.1-17.05 26.96-38.43 33.02-47.5 6.06-9.08 14.62-22.58 19.03-30 4.41-7.43 12.28-21.6 17.5-31.5 5.22-9.9 10.76-20.03 12.3-22.5 1.54-2.48 5.61-8.1 9.04-12.5 3.43-4.4 11.36-13.02 17.61-19.14 6.25-6.13 16.1-15.16 21.87-20.07 5.78-4.9 14.33-13.17 19.01-18.36 4.69-5.19 14.36-16.56 21.5-25.28 7.15-8.71 14.46-17.93 16.25-20.5 2.43-3.48 3.25-5.72 3.25-8.9-0.01-3.49-0.8-5.29-4.42-10-2.42-3.16-10.86-12.08-18.75-19.8-7.88-7.73-23.56-21.71-34.84-31.07-11.27-9.36-25.46-21.94-31.53-27.95-6.06-6.01-14.09-14.76-17.82-19.43-3.74-4.68-9.51-12.55-12.81-17.5-3.3-4.95-8.89-14.85-12.43-22-3.54-7.15-7.32-15.7-8.39-19-1.08-3.3-2.24-7.8-2.59-10-0.34-2.2-0.13-5.91 0.48-8.25 0.62-2.43 2.7-5.98 4.84-8.29 2.06-2.23 5.55-4.69 7.75-5.48 2.44-0.88 5.56-1.21 8-0.84zm971.5 119.49c5.78-0.07 14.33 0.33 19 0.91 4.68 0.57 11.15 1.81 14.38 2.75 3.23 0.94 6.02 1.93 6.19 2.21 0.18 0.27-8.77 2.85-19.87 5.73-11.11 2.88-35.27 9.98-53.7 15.78-18.42 5.8-48.8 15.75-67.5 22.12-18.7 6.37-43.22 14.64-54.5 18.39-11.27 3.74-32.2 10.48-46.5 14.97-14.3 4.49-34.55 10.64-45 13.66-10.45 3.02-30.47 8.56-44.5 12.31-14.02 3.74-36.07 9.11-49 11.91-12.92 2.8-31.6 6.42-41.5 8.04-9.9 1.62-22.05 3.43-27 4.01-4.95 0.59-15.3 1.52-23 2.07-7.7 0.55-26.82 1-42.5 1-15.67 0-35.92-0.45-45-1-9.07-0.56-23.02-1.72-31-2.58-7.97-0.87-20.8-2.65-28.5-3.96-7.7-1.31-18.27-3.49-23.5-4.85-5.22-1.36-19.62-5.67-32-9.57-12.37-3.9-24.41-8.21-26.75-9.56-2.34-1.36-4.25-2.92-4.25-3.47 0-0.55 0.79-1.01 1.75-1.03 0.96-0.01 6.48 1.83 12.25 4.1 5.78 2.27 16.58 5.68 24 7.57 7.43 1.9 20.25 4.34 28.5 5.43 11.6 1.54 23.51 2.12 52.5 2.58 21.97 0.35 48.99 0.13 65.25-0.53 15.26-0.62 34.39-1.81 42.5-2.66 8.11-0.84 20.6-2.44 27.75-3.55 7.15-1.11 18.4-3.15 25-4.54 6.6-1.39 19.65-4.49 29-6.89 9.35-2.39 25.33-6.89 35.5-9.99 10.18-3.1 46.18-14.68 80-25.73 33.83-11.05 85.35-27.68 114.5-36.95 29.15-9.27 58.18-18.17 64.5-19.78 6.33-1.61 16.68-3.85 23-4.98 6.33-1.13 15.55-2.45 20.5-2.92 4.95-0.47 13.73-0.92 19.5-1zm-734 152.86c0.83-0.02 3.08 0.5 5 1.15 1.93 0.64 7.33 3.77 12 6.94 4.68 3.18 12.3 9.3 16.94 13.6 4.64 4.3 11.98 12.09 16.31 17.32 4.32 5.22 7.39 9.61 6.81 9.75-0.58 0.14-7.02-4.52-14.31-10.36-7.29-5.83-18.2-14.35-24.25-18.93-6.05-4.58-12.12-8.63-13.5-8.99-1.95-0.53-3.34 0.06-6.36 2.68-2.13 1.84-5.83 6.5-8.22 10.35-2.39 3.85-5.67 10.6-7.29 15-1.62 4.4-3.7 11.82-4.62 16.5-1.06 5.36-1.96 16.99-2.43 31.5-0.47 14.23-1.22 24.14-1.99 26-0.67 1.65-1.99 3.84-2.91 4.86-0.92 1.02-4.83 3.44-8.68 5.36-3.85 1.93-9.25 5.1-12 7.04-2.75 1.95-8.37 6.36-12.5 9.81-4.12 3.45-10.71 10.25-14.63 15.1-3.92 4.86-9.01 11.75-11.31 15.33-2.3 3.57-6.63 11.45-9.63 17.5-3 6.05-7.81 16.62-10.7 23.5-2.88 6.87-7.71 16.95-10.74 22.4-3.02 5.45-7.11 11.75-9.09 14-1.99 2.25-5.81 5.3-8.5 6.76-2.7 1.47-7.72 3.27-11.18 4-6.03 1.29-6.99 1.19-25-2.57-10.29-2.15-20.07-4.11-21.72-4.35-2.71-0.4-3.07-0.13-3.76 2.91-0.45 2.01-0.16 6.84 0.75 12.1 0.83 4.81 2.45 11.56 3.6 15 1.14 3.44 3.51 8.94 5.25 12.22 1.74 3.29 5.86 8.84 9.16 12.35 3.3 3.51 8.25 7.87 11 9.7 2.75 1.82 9.16 4.93 14.25 6.9 5.09 1.97 12.96 4.48 17.5 5.58 4.54 1.11 16.13 3.15 25.75 4.55 9.63 1.4 17.73 2.77 18 3.05 0.28 0.28-0.17 0.93-1 1.44-0.82 0.52-4.87 2.36-9 4.09-5.97 2.51-9.34 3.25-16.5 3.61-6.52 0.34-10.1 0.05-13-1.04-2.2-0.83-11.42-4.17-20.5-7.43-9.07-3.26-19.38-7.47-22.91-9.35-3.53-1.88-8.26-5.04-10.5-7.01-2.25-1.97-6.56-6.91-9.59-10.98-3.02-4.07-7.42-10.78-9.77-14.92-2.35-4.13-5.67-11.79-7.37-17.01-2.59-7.96-3.12-11.2-3.23-20-0.11-8.87 0.2-11.12 1.96-14.5 1.15-2.2 4.01-5.35 6.35-7 3.22-2.27 5.64-3.09 9.91-3.38 3.99-0.26 9.63 0.58 19.15 2.86 7.43 1.79 16.2 3.63 19.5 4.1 3.43 0.48 7.5 0.47 9.5-0.04 1.94-0.5 4.95-2.49 6.75-4.47 1.79-1.96 4.89-6.83 6.88-10.82 2-3.99 6.89-14.9 10.86-24.25 3.98-9.35 8.82-20.15 10.75-24 1.94-3.85 6.82-11.95 10.85-18 4.95-7.43 11.08-14.76 18.87-22.59 8.33-8.36 14.52-13.51 22.26-18.5 5.9-3.8 12.2-7.81 14-8.92 1.81-1.1 4.07-3.58 5.03-5.5 1.18-2.36 1.75-5.84 1.75-10.74 0-3.99 0.66-12.31 1.47-18.5 0.81-6.19 2.61-15.19 4-20 1.39-4.81 4.33-12.35 6.53-16.75 2.2-4.4 8.08-13.44 13.06-20.09 4.98-6.65 10.5-12.95 12.25-14 1.76-1.05 3.87-1.91 4.69-1.92zm351 24.59c22.94 0.22 47.26 1.01 58 1.9 10.18 0.83 27.05 2.43 37.5 3.56 10.45 1.12 28 3.4 39 5.06 11 1.66 32.15 5.43 47 8.38 14.85 2.95 38.25 8.11 52 11.47 13.75 3.36 26.69 6.54 28.75 7.08 2.06 0.53 3.75 1.42 3.75 1.97 0 0.65-12.32 0.86-35.75 0.6-28.08-0.31-41.64-0.95-63.25-2.96-15.12-1.41-46.17-4.37-69-6.58-22.82-2.21-56.12-5.39-74-7.07-17.87-1.68-43.3-3.52-56.5-4.09-13.2-0.57-32.77-0.76-43.5-0.42-10.72 0.33-26.92 1.06-36 1.6-9.07 0.55-25.5 1.88-36.5 2.97-11 1.08-29 3.1-40 4.48-11 1.38-28.32 3.65-38.5 5.04-10.17 1.39-19.4 2.37-20.5 2.18-1.19-0.21 0.82-1.23 5-2.55 3.85-1.2 15.78-4.42 26.5-7.14 10.73-2.72 26.93-6.53 36-8.46 9.08-1.94 24.6-4.86 34.5-6.5 9.9-1.63 27.9-4.1 40-5.48 12.1-1.38 29.65-2.99 39-3.59 9.35-0.6 19.25-1.25 22-1.46 2.75-0.2 22.78-0.2 44.5 0.01zm-142.25 47.46c3.49-0.02 7.91 0.65 10 1.52 2.06 0.86 4.55 2.32 5.52 3.25 0.97 0.93 1.98 2.81 2.24 4.19 0.27 1.37 1.72 3.69 3.24 5.14 1.51 1.45 6.35 3.86 10.75 5.36 4.4 1.49 9.8 3.64 12 4.76 2.2 1.12 6.25 3.7 9 5.72 2.75 2.03 6.96 5.9 9.34 8.6 2.39 2.71 6.44 8.07 9 11.92 2.55 3.85 6.96 12.4 9.79 19 2.83 6.6 6.56 16.95 8.29 23 1.73 6.05 4.02 15.95 5.08 22 1.06 6.05 2.39 15.5 2.96 21 0.56 5.5 1.45 18.1 1.98 28 0.68 12.97 1.51 19.81 2.95 24.5 1.11 3.57 3.38 8.41 5.06 10.75 1.68 2.34 4.96 5.61 7.3 7.29 2.34 1.67 7.4 4.33 11.25 5.92 3.85 1.59 10.83 3.93 15.5 5.19 7.48 2.02 10.72 2.29 27 2.24 11.09-0.04 22.31-0.65 28-1.54 5.96-0.93 10.62-2.25 12.5-3.54 1.65-1.14 6.41-7.18 10.57-13.44 4.16-6.25 10.41-16.32 13.9-22.37 3.48-6.05 9.14-15.05 12.58-20 3.44-4.95 8.88-11.89 12.1-15.42 3.22-3.53 8.78-8.75 12.35-11.6 3.58-2.85 8.86-6.38 11.75-7.83 2.89-1.46 8.06-3.36 11.5-4.23 4.94-1.25 7.19-1.36 10.75-0.51 2.48 0.59 6.41 2.43 8.75 4.08 2.79 1.97 5.12 4.82 6.76 8.26 1.66 3.47 2.88 8.46 3.59 14.75 0.59 5.22 1.74 11.07 2.56 13 0.82 1.92 3.38 12.95 5.69 24.5 3.75 18.69 4.6 21.6 7.76 26.5 1.96 3.02 4.26 7.3 5.11 9.5 0.85 2.2 1.86 6.25 2.25 9 0.49 3.43 0.2 7.03-0.93 11.5-0.91 3.57-2.84 8.07-4.3 10-1.46 1.92-3.35 4.08-4.2 4.79-0.84 0.7-3.11 2.31-5.04 3.56-1.92 1.25-6.87 3.47-11 4.95-4.12 1.47-9.75 4.1-12.5 5.83-2.75 1.73-8.08 6.12-11.84 9.76-3.76 3.63-8.74 9.31-11.07 12.61-2.33 3.3-6.65 10.05-9.61 15-2.95 4.95-14.57 22.27-25.83 38.5-11.26 16.22-24.07 34.45-28.48 40.5-4.4 6.05-10.52 13.88-13.59 17.39-3.07 3.52-9.18 9.38-13.58 13.02-4.4 3.64-12.27 9.27-17.5 12.52-5.22 3.24-18.05 10.06-28.5 15.15-13.72 6.68-20.53 10.62-24.5 14.15-3.02 2.7-6.88 7.12-8.56 9.83-1.68 2.72-3.82 6.85-4.75 9.19-0.93 2.34-2.17 8.19-2.76 13-0.64 5.24-0.72 10.35-0.21 12.75 0.74 3.43 1.63 4.45 6.32 7.24 3 1.79 7.94 5.03 10.96 7.21 3.03 2.17 7.3 6.24 9.5 9.03 2.2 2.8 3.78 5.18 3.5 5.3-0.27 0.12-1.51 0.78-2.75 1.47-1.24 0.69-3.04 1.24-4 1.22-0.96-0.01-5.69-1.81-10.5-4-4.81-2.18-11.79-4.51-15.5-5.16-4.91-0.87-8.65-0.91-13.75-0.15-3.85 0.57-9.92 2.42-13.5 4.12-3.57 1.7-6.72 2.89-7 2.66-0.27-0.24 0.4-1.38 1.5-2.54 1.1-1.17 4.03-3.14 6.5-4.4 2.48-1.25 8.64-3.34 22.89-7l-2.94-1.75c-1.62-0.96-3.4-2.65-3.95-3.75-0.55-1.1-1-4.14-1-6.75 0.01-2.61 1.11-11.73 2.45-20.25 1.35-8.53 3.4-18.2 4.55-21.5 1.15-3.3 3.31-7.56 4.8-9.47 1.49-1.91 3.83-4.54 5.2-5.84 1.38-1.3 6.55-5.11 11.5-8.46 4.95-3.36 16.65-10.35 26-15.54 9.35-5.2 20.14-11.52 23.97-14.07 3.83-2.54 10.52-8 14.88-12.12 4.36-4.13 10.79-11.33 14.3-16 3.5-4.68 9.21-14.13 12.69-21 3.47-6.88 13.66-23.53 22.64-37 8.98-13.48 20.46-30.35 25.5-37.5 5.05-7.15 13.42-17.42 18.6-22.81 7.2-7.49 10.48-10.17 13.92-11.35 2.48-0.85 7.65-3.06 11.5-4.92 3.85-1.86 8.91-4.97 11.25-6.9 2.61-2.16 4.64-4.88 5.25-7.02 0.73-2.54 0.66-4.24-0.25-6.21-0.69-1.49-3.92-4.75-7.18-7.25-3.42-2.62-6.49-5.92-7.25-7.79-1.15-2.83-1.05-4.32 0.76-11.5 1.14-4.54 2.06-10.28 2.03-12.75-0.03-2.48-0.74-5.51-1.58-6.75-0.84-1.24-3.35-3.49-5.58-5-2.23-1.51-4.75-4.33-5.6-6.25-1.25-2.84-1.35-4.64-0.53-9.5 0.55-3.3 0.71-8.82 0.34-12.26-0.36-3.44-0.77-6.26-0.91-6.25-0.14 0-3.29 1.01-7 2.22-6.34 2.09-7.23 2.77-14.57 11.25-4.29 4.97-11.76 14.21-16.58 20.54-4.83 6.32-13.42 18.47-19.1 27-5.68 8.52-12.73 18.76-15.66 22.75-4.67 6.34-6.03 7.5-10.84 9.25-3.02 1.1-9.66 2.67-14.75 3.49-5.09 0.83-14.76 1.5-21.5 1.5-6.74 0.01-17.31-0.7-23.5-1.57-6.19-0.86-14.17-2.23-17.75-3.04-3.57-0.81-10.32-2.63-15-4.04-4.67-1.41-10.75-3.71-13.5-5.11-2.75-1.41-7.17-4.62-9.83-7.15-2.66-2.52-6.13-6.61-7.71-9.08-1.58-2.48-3.8-7.2-4.93-10.5-1.13-3.3-2.49-8.48-3.02-11.5-0.53-3.03-1.66-16.75-2.5-30.5-0.85-13.75-2.25-31.75-3.12-40-0.88-8.25-2.67-19.16-3.99-24.25-1.32-5.09-4.63-14.99-7.37-22-2.73-7.01-6.33-14.89-8-17.5-1.66-2.61-4.94-6.83-7.28-9.36-2.34-2.53-7.17-6.53-10.75-8.89-3.57-2.36-10.09-5.57-14.47-7.14-4.95-1.78-9.12-4.03-11-5.94-1.67-1.69-4.15-4.69-5.53-6.67-1.37-1.97-3.74-4.3-5.25-5.17-1.51-0.87-4.55-1.58-6.75-1.58-2.2 0-5.46 0.74-7.25 1.65-1.79 0.9-4.82 2.79-6.75 4.19-1.92 1.4-5 3.92-6.83 5.6-1.84 1.68-3.98 4.3-4.75 5.81-0.78 1.51-1.42 5.22-1.42 8.25 0 5.45-0.07 5.58-8.25 15.02-4.54 5.24-8.81 9.74-9.5 10-0.69 0.26-1.7 0.25-2.25-0.02-0.55-0.28 0.75-3.09 2.9-6.25 2.14-3.16 5.33-7.1 7.09-8.75 1.75-1.65 3.83-4.24 4.6-5.75 0.78-1.51 1.41-5.45 1.41-8.75 0-3.3 0.48-7.24 1.07-8.75 0.58-1.51 2.27-4.05 3.75-5.63 1.47-1.58 5.83-4.92 9.68-7.43 3.85-2.51 8.58-5.36 10.5-6.34 2.21-1.12 5.81-1.79 9.75-1.81zm-30 57.99c1.79-0.02 4.06 0.76 5.06 1.72 1.05 1.02 2.09 4.03 2.5 7.25 0.38 3.02 1.64 7.3 2.79 9.5 1.15 2.2 3.06 5.02 4.24 6.27 1.25 1.32 3.32 2.27 4.91 2.25 1.55-0.01 4.82-1.56 7.5-3.55 2.61-1.95 5.2-3.54 5.75-3.55 0.55-0.01 1.54 0.57 2.2 1.28 0.66 0.72 1.66 4.45 2.23 8.3 0.57 3.85 1.04 11.61 1.05 17.25 0.01 5.64-0.61 13.51-1.39 17.5-0.77 3.99-2.6 10.4-4.06 14.25-1.45 3.85-4.79 10.15-7.41 14-2.63 3.85-8.58 12.62-13.23 19.5-4.65 6.87-11.45 18.35-15.1 25.5-3.66 7.15-8.46 18.4-10.68 25-2.21 6.6-4.79 16.27-5.73 21.5-1.1 6.12-1.7 14.65-1.69 24 0.02 9.96 0.56 17 1.76 22.5 0.95 4.4 2.64 10.7 3.76 14 1.12 3.3 3.69 9.6 5.72 14 2.03 4.4 5.65 10.92 8.05 14.5 2.41 3.57 6.93 9.65 10.06 13.5 3.13 3.85 12.86 13.97 21.63 22.5 8.76 8.52 21.09 20.04 27.38 25.59 6.3 5.55 16.17 13.87 21.94 18.5 5.77 4.62 12.9 10.88 15.85 13.91 2.95 3.02 6.98 7.97 8.96 11 1.98 3.02 5.14 8.87 7.02 13 1.89 4.12 4.28 10.87 5.32 15 1.04 4.12 2.36 12.45 2.94 18.5 0.57 6.05 0.72 14.6 0.32 19-0.48 5.19-1.29 8.53-2.32 9.53-0.87 0.84-6.98 3.66-13.58 6.28-6.6 2.61-12.11 4.51-12.25 4.22-0.14-0.29 3.69-3.2 8.5-6.47 5.09-3.46 9.55-7.32 10.66-9.25 1.65-2.88 1.8-4.43 1.16-11.81-0.4-4.68-1.76-12.55-3.02-17.5-1.25-4.95-3.44-11.48-4.86-14.5-1.42-3.03-4.46-8.43-6.76-12-2.3-3.58-7.61-9.89-11.8-14.02-4.2-4.14-14.57-12.46-23.05-18.5-8.48-6.04-21.76-16.44-29.5-23.1-7.74-6.67-20.4-18.59-28.13-26.5-10-10.23-16.15-17.56-21.32-25.38-3.99-6.05-9.08-14.83-11.3-19.5-2.21-4.68-5.12-11.88-6.45-16-1.34-4.13-3.14-10.88-4.01-15-0.87-4.13-1.81-13.8-2.09-21.5-0.42-11.45-0.12-16.28 1.64-26.5 1.18-6.88 3.73-17.23 5.67-23 1.94-5.78 5.44-14.55 7.77-19.5 2.34-4.95 6.76-13.28 9.83-18.5 3.06-5.23 8.92-14 13.02-19.5 4.1-5.5 9.78-12.7 12.62-16 2.84-3.3 6.71-8.93 8.6-12.5 1.88-3.58 4.36-9.88 5.49-14 1.14-4.13 2.7-11.78 3.48-17 0.78-5.23 1.35-9.61 1.26-9.74-0.09-0.12-2.63-0.53-5.66-0.89-3.02-0.36-7.19-1.49-9.25-2.51-2.06-1.03-4.66-3.1-5.77-4.61-1.12-1.51-2.44-5-2.95-7.75-0.5-2.75-1.2-7.25-1.54-10-0.34-2.75-1.16-5.71-1.81-6.57-0.65-0.87-2.08-2.09-3.18-2.72-1.81-1.04-1.69-1.15 1.25-1.18zm-300 237c0.69-0.02 3.5 0.87 6.25 1.97 2.75 1.1 10.06 3.32 16.25 4.94 6.19 1.62 16.88 3.62 23.75 4.43 6.88 0.82 20.38 1.78 30 2.13 10.44 0.39 21.74 1.44 28 2.62 5.78 1.08 18.6 4.18 28.5 6.89 9.9 2.7 21.83 5.83 26.5 6.96 4.68 1.12 15.03 3.14 23 4.49 7.98 1.34 21.03 3.15 29 4.01 7.98 0.86 17.88 2.48 22 3.6 4.13 1.12 10.43 3.76 14 5.88 3.58 2.11 10.55 7.44 15.5 11.83 4.95 4.4 11.32 10.86 14.16 14.36 2.83 3.5 7.56 10.18 10.51 14.86 2.94 4.67 9.22 17.27 13.95 28 4.73 10.72 8.89 20.51 9.24 21.75 0.35 1.24 0.3 2.24-0.11 2.22-0.41-0.02-5.02-5.84-10.25-12.93-5.22-7.1-12.65-18.19-16.5-24.65-4.81-8.06-9.66-14.53-15.5-20.66-4.67-4.91-10.97-10.56-14-12.55-3.02-1.99-8.42-5.05-12-6.8-3.57-1.75-9.65-4.15-13.5-5.34-3.85-1.18-16-3.47-27-5.08-11-1.61-27.42-4.76-36.5-7-9.07-2.24-27.41-7.65-40.75-12.02-23.18-7.59-25.03-8.03-42-9.97-9.76-1.11-20.45-2.5-23.75-3.07-3.3-0.57-11.4-2.39-18-4.05-6.6-1.66-14.92-4.05-18.5-5.32-3.57-1.27-9.42-3.66-13-5.32-3.57-1.65-7.4-3.71-8.5-4.58-1.12-0.88-1.45-1.58-0.75-1.6zm19.66 616.24c0.6 0.27 5.06 1.68 18.73 5.75l0.43 36.49c0.24 20.07 0.7 37.05 1.04 37.74 0.37 0.77 1.85-0.66 3.86-3.75 1.79-2.75 7.51-11.75 12.71-20 5.2-8.25 12.56-20.18 16.35-26.5 3.8-6.33 6.92-11.64 6.94-11.81 0.02-0.17 4.44 0.73 9.82 2 5.39 1.27 9.62 2.76 9.4 3.31-0.21 0.55-3.23 5.5-6.7 11-3.48 5.5-11.27 17.42-17.31 26.5-6.04 9.07-15.87 23.36-21.83 31.75-5.97 8.39-11.19 15.24-11.6 15.23-0.41-0.01-4.57-1.16-9.25-2.54-4.67-1.39-8.57-2.62-8.65-2.73-0.09-0.12-0.88-9.44-1.76-20.71-0.88-11.28-2.04-30.85-2.58-43.5-0.54-12.65-0.91-26.54-0.83-30.86 0.09-5.27 0.49-7.7 1.23-7.37zm586.97-0.2c0.49-0.04 1.84 3.28 3 7.38 1.17 4.09 2.12 7.74 2.12 8.09 0 0.36-3.37 1.75-7.5 3.09-4.12 1.35-15.15 4.69-24.5 7.42-9.35 2.74-17.06 5.08-17.13 5.21-0.08 0.13 1.05 4.86 5.13 20.79l3-0.65c1.65-0.35 12.23-3.27 23.5-6.47 11.28-3.21 20.73-5.59 21-5.29 0.28 0.29 1.4 3.83 2.5 7.87 1.74 6.37 1.81 7.39 0.5 7.79-0.82 0.26-11.4 3.48-23.5 7.15-12.1 3.67-22.22 6.9-22.5 7.17-0.27 0.26 0.57 4.85 1.88 10.18 1.31 5.33 2.77 10.49 3.25 11.45 0.81 1.63 1.63 1.54 12.12-1.34 6.19-1.69 17.78-5.13 25.75-7.63 7.98-2.51 15.4-4.75 16.5-4.98 1.71-0.36 2.36 0.68 7 14.86l-2.5 0.99c-1.37 0.54-9.02 3.01-17 5.49-7.97 2.48-20.35 6.05-27.5 7.94-7.15 1.88-17.05 4.35-22 5.49-4.95 1.13-9.09 1.91-9.2 1.74-0.11-0.17-5.18-21.12-11.25-46.56-6.08-25.44-11.04-46.59-11.03-47 0-0.41 5.29-2.03 11.75-3.59 6.45-1.56 19.16-5.02 28.23-7.7 9.08-2.68 18.98-5.76 22-6.84 3.03-1.09 5.9-2.01 6.38-2.05zm-81.88 23.03c1.71-0.12 2.26 1.01 3.76 7.63 0.96 4.27 1.63 7.81 1.5 7.87-0.14 0.05-6.22 1.29-13.51 2.75-7.29 1.46-13.47 2.65-13.75 2.65-0.27 0-0.5 0.9-0.5 2 0 1.1 3.15 18.87 7 39.5 3.85 20.62 7.01 37.61 7.02 37.75 0.02 0.14-2.8 0.85-6.25 1.58-3.45 0.73-8.29 1.71-10.77 2.18-2.47 0.46-4.58 0.76-4.69 0.66-0.1-0.09-3.25-17.88-13.81-78.86l-3.5 0.61c-1.92 0.33-8.45 1.31-14.5 2.18-6.05 0.86-11.29 1.19-11.65 0.73-0.35-0.46-0.92-4.09-1.25-8.08-0.44-5.36-0.27-7.36 0.65-7.65 0.69-0.22 11.6-2.06 24.25-4.09 12.65-2.03 28.63-4.95 35.5-6.48 6.88-1.54 13.4-2.86 14.5-2.93zm-393 6.93c0.55-0.01 4.6 0.68 9 1.53 4.4 0.84 8.9 1.71 10 1.93 1.69 0.33 2.29 1.98 3.86 10.7 1.02 5.67 3.63 19.31 5.79 30.31 2.16 11 5.96 29 8.44 40 2.48 11 4.37 20.08 4.21 20.18-0.16 0.1-5.02-0.46-10.8-1.24-5.77-0.78-10.72-1.68-11-2.01-0.27-0.32-1.4-4.91-4.5-19.78l-17.5-3.8c-9.62-2.09-18.4-3.79-19.5-3.78-1.42 0.02-3.53 2.49-7.25 8.48-2.89 4.64-5.81 8.43-6.5 8.41-0.69-0.02-5.9-1.04-21.9-4.46l1.92-2.5c1.07-1.38 9.12-13.3 17.89-26.5 8.78-13.2 20.66-31.53 26.4-40.73 5.74-9.2 10.89-16.73 11.44-16.74zm307.75 8.11c0.96-0.08 1.93 0.42 2.15 1.11 0.21 0.69 0.72 4.4 1.84 15.25l-7.87 1.22c-4.33 0.67-10.74 1.57-20.64 2.78l0.65 7c0.36 3.85 2.18 21.62 4.05 39.5 1.86 17.87 3.15 32.72 2.88 33-0.28 0.27-5.08 0.86-10.66 1.3-5.58 0.44-10.37 0.51-10.65 0.15-0.27-0.36-0.84-5-1.25-10.3-0.42-5.31-1.77-22.77-3-38.8-1.24-16.04-2.47-29.37-2.75-29.64-0.27-0.27-7.02-0.1-15 0.38-7.97 0.48-14.62 0.77-14.77 0.64-0.15-0.13-0.6-3.95-1.73-16.75l2.5 0.02c1.38 0 12.4-0.72 24.5-1.62 12.1-0.89 27.85-2.41 35-3.36 7.15-0.96 13.79-1.8 14.75-1.88zm-233.89 2.3c2.83 0.34 7.28 0.84 9.89 1.09 3.93 0.39 4.75 0.81 4.75 2.47 0 1.1-0.88 9.76-1.96 19.25-1.08 9.49-2.88 26.47-4 37.75-1.13 11.27-1.94 20.6-1.79 20.73 0.14 0.12 7.45 0.9 16.25 1.73 8.8 0.83 20.16 1.52 34.5 1.54v17h-5.25c-2.89 0-13.8-0.69-24.25-1.54-10.45-0.85-24.62-2.19-31.5-2.98-6.87-0.78-12.62-1.55-12.76-1.71-0.14-0.15 1.31-13.32 3.24-29.27 1.92-15.95 4.4-36.99 5.51-46.75 1.1-9.76 2.06-18.24 2.12-18.85q0.12-1.09 5.25-0.46zm75.64 5.56l70.5-0.02 0.75 7.51c0.41 4.13 0.53 7.96 0.25 8.51-0.31 0.63-10 1-51.5 1v22h49l0.03 15.5-5.27 0.74c-2.89 0.41-14.15 0.74-44.76 0.76l0.49 2.25c0.27 1.24 0.49 6.86 0.51 22.75l58-1v16l-6.75 0.6c-3.71 0.34-21.82 0.57-40.25 0.52-18.42-0.05-33.6-0.21-33.73-0.36-0.13-0.14 0.43-20.51 1.24-45.26 0.82-24.75 1.49-46.46 1.49-48.25z"/>
		<path id="Path 3" class="s3" d="m1436.5 309.09c-9.9 0.43-27.22 1.51-38.5 2.4-11.28 0.88-28.38 2.49-38 3.56-9.63 1.08-24.03 2.88-32 4.01-7.97 1.13-22.38 3.37-32 4.97-9.63 1.6-26.28 4.71-37 6.9-10.72 2.19-28.95 6.22-40.5 8.96-11.55 2.73-31.35 7.9-44 11.48-12.65 3.59-29.97 8.76-38.5 11.49-8.53 2.74-22.03 7.21-30 9.95-7.97 2.74-25.53 9.25-39 14.47-13.47 5.23-31.03 12.29-39 15.7-7.98 3.41-25.3 11.32-38.5 17.59-13.2 6.26-32.77 15.96-43.5 21.55-10.73 5.59-28.95 15.59-40.5 22.22-11.55 6.63-28.2 16.53-37 22-8.8 5.48-22.08 14.01-29.5 18.96-7.42 4.96-19.58 13.3-27 18.54-7.42 5.24-18.9 13.59-25.5 18.54-6.6 4.96-21 16.23-32 25.04-11 8.81-26.98 22.16-35.5 29.66-8.52 7.5-23.38 21.04-33 30.1-9.63 9.06-24.75 24.09-33.6 33.4-8.86 9.3-22.81 24.57-31 33.93-8.2 9.36-17.39 19.93-20.44 23.5-3.04 3.57-9.36 11.22-14.04 16.99-4.68 5.78-13.47 17.03-19.53 25-6.07 7.98-15.98 21.48-22.03 30-6.05 8.53-14.83 21.13-19.52 28-4.69 6.88-13.69 20.6-20 30.5-6.31 9.9-17.12 27.45-24.02 39-6.91 11.55-15.48 26.17-19.05 32.5-3.57 6.33-10.99 19.83-16.5 30-5.51 10.17-16.54 31.55-24.51 47.5-7.98 15.95-18.12 36.88-22.54 46.5-4.42 9.63-9.89 21.78-12.15 27-2.25 5.22-4.09 9.84-4.09 10.25 0.01 0.41 18.72 0.64 41.58 0.5l41.56-0.25c15.87-33.33 26.03-53.58 32.82-66.5 6.78-12.92 17.07-32.05 22.86-42.5 5.79-10.45 14.34-25.52 18.99-33.5 4.66-7.97 13.02-21.92 18.59-31 5.56-9.08 17.26-27.3 26.01-40.5 8.74-13.2 21.97-32.33 29.4-42.5 7.42-10.17 17.66-23.67 22.74-30 5.08-6.33 12.69-15.55 16.91-20.5 4.21-4.95 16.72-18.67 27.78-30.5 11.07-11.83 29.85-31.17 41.75-43 11.89-11.83 29.48-28.55 39.08-37.16 9.6-8.62 23.53-20.77 30.97-27 7.43-6.24 21.38-17.46 31-24.95 9.61-7.48 24.23-18.46 32.48-24.39 8.25-5.93 23.33-16.27 33.5-22.96 10.17-6.7 24.8-16.04 32.5-20.75 7.7-4.71 22.55-13.4 33-19.29 10.45-5.9 28.45-15.46 40-21.25 11.55-5.78 26.85-13.2 34-16.49 7.15-3.28 21.33-9.45 31.5-13.72 10.17-4.27 26.6-10.79 36.5-14.51 9.9-3.71 26.55-9.6 37-13.08 10.45-3.49 27.78-8.84 38.5-11.91 10.72-3.06 29.17-8.01 41-11 11.83-2.98 33.88-7.91 49-10.94 15.13-3.04 36.5-6.88 47.5-8.54 11-1.66 25.17-3.7 31.5-4.54 6.33-0.84 22.53-2.63 36-3.98 13.47-1.35 35.3-3.23 48.5-4.17 17.49-1.25 37.29-1.73 73-1.78 29.51-0.04 56.36 0.44 67.5 1.19 10.17 0.69 25.92 1.93 35 2.76 9.08 0.82 25.5 2.63 36.5 4 11 1.38 31.03 4.32 44.5 6.55 13.47 2.22 31.92 5.61 41 7.53 9.08 1.91 25.5 5.74 36.5 8.49 11 2.76 26.3 6.81 34 9.01 7.7 2.2 20.53 6.05 28.5 8.55 7.97 2.5 22.6 7.47 32.5 11.04 9.9 3.57 25.2 9.31 34 12.76 8.8 3.45 22.97 9.3 31.5 13 8.53 3.7 24.05 10.81 34.5 15.8 10.45 5 27.55 13.57 38 19.06 10.45 5.48 26.42 14.25 35.5 19.47 9.08 5.23 21.9 12.88 28.5 17 6.6 4.13 19.2 12.21 28 17.97 8.8 5.76 23.65 15.9 33 22.53 9.35 6.64 21.5 15.45 27 19.59 5.5 4.14 15.4 11.8 22 17.03 6.6 5.23 18.3 14.74 26 21.15 7.7 6.41 20.53 17.43 28.5 24.5 7.97 7.06 22.33 20.06 31.91 28.89 9.57 8.82 24.65 23.69 33.51 33.04 8.85 9.35 21.5 23.3 28.1 31 6.61 7.7 16.52 19.63 22.03 26.5 5.52 6.88 14.32 18.13 19.57 25 5.25 6.88 15.57 21.05 22.93 31.5 7.36 10.45 19.07 27.78 26.01 38.5 6.95 10.73 17.81 28.05 24.12 38.5 6.32 10.45 17.04 28.9 23.83 41 6.78 12.1 20.04 37.3 29.46 56 9.41 18.7 20.36 40.86 24.32 49.25l7.21 15.25c68.97 0 89-0.34 89-0.75 0-0.41-5.06-12-11.25-25.75-6.18-13.75-18.03-38.5-26.33-55-8.29-16.5-21.08-40.8-28.41-54-7.34-13.2-19.4-34.12-26.82-46.5-7.42-12.37-19.57-31.95-26.99-43.5-7.43-11.55-19.13-29.1-26.01-39-6.88-9.9-16.77-23.85-21.99-31-5.22-7.15-15.6-20.87-23.07-30.5-7.46-9.62-19.03-24.02-25.7-32-6.67-7.97-17.94-21-25.03-28.95-7.1-7.95-19.2-20.96-26.9-28.9-7.7-7.94-24.57-24.21-37.5-36.17-12.93-11.95-29.57-27.01-37-33.47-7.43-6.45-20.19-17.2-28.37-23.87-8.17-6.68-22.12-17.78-31-24.67-8.87-6.88-20.85-15.94-26.63-20.11-5.78-4.18-16.57-11.83-24-17.01-7.43-5.19-19.8-13.49-27.5-18.45-7.7-4.96-19.18-12.2-25.5-16.07-6.32-3.88-16.9-10.21-23.5-14.07-6.6-3.86-18.3-10.48-26-14.7-7.7-4.23-25.92-13.64-40.5-20.91-14.58-7.27-33.47-16.31-42-20.07-8.53-3.77-24.72-10.58-36-15.14-11.28-4.55-27.25-10.74-35.5-13.75-8.25-3.01-24.22-8.47-35.5-12.13-11.28-3.66-28.37-8.93-38-11.7-9.62-2.77-29.2-7.91-43.5-11.4-14.3-3.5-33.65-7.93-43-9.85-9.35-1.91-28.03-5.31-41.5-7.54-13.47-2.23-31.03-4.93-39-6-7.97-1.07-23.28-2.86-34-3.97-10.72-1.12-28.28-2.72-39-3.55-10.72-0.84-30.3-1.98-43.5-2.53-13.2-0.56-37.5-0.94-54-0.86-16.5 0.08-38.1 0.5-48 0.93zm1 146.01c-9.35 0.44-22.62 1.29-29.5 1.89-6.87 0.6-20.6 2-30.5 3.11-9.9 1.12-25.65 3.13-35 4.47-9.35 1.35-26.67 4.26-38.5 6.48-11.83 2.21-28.7 5.61-37.5 7.55-8.8 1.94-22.08 5.12-29.5 7.06-7.42 1.94-20.7 5.54-29.5 8-8.8 2.46-26.58 8.01-39.5 12.32-12.92 4.32-32.28 11.19-43 15.28-10.72 4.08-28.5 11.2-39.5 15.81-11 4.62-34.17 15.41-51.5 23.99-17.33 8.58-40.05 20.48-50.5 26.44-10.45 5.96-25.75 14.97-34 20.02-8.25 5.04-19.73 12.24-25.5 15.99-5.77 3.75-15.67 10.43-22 14.85-6.33 4.42-18.7 13.41-27.5 19.98-8.8 6.57-20.27 15.36-25.5 19.55-5.22 4.19-16.25 13.39-24.5 20.47-8.25 7.07-21.98 19.28-30.5 27.14-8.52 7.86-21.59 20.53-29.04 28.15-7.44 7.62-22.03 23.3-32.42 34.85-10.39 11.55-23.9 26.85-30.02 34-6.11 7.15-16.53 19.75-23.15 28-6.62 8.25-17.9 22.88-25.06 32.5-7.16 9.63-18.75 25.83-25.76 36-7 10.17-17.49 26.15-23.3 35.5-5.82 9.35-14.84 24.42-20.06 33.5-5.22 9.08-14.58 26.4-20.79 38.5-6.22 12.1-14.71 29.42-18.87 38.5-4.17 9.08-7.56 16.61-7.55 16.75 0.01 0.14 17.23 0.25 38.27 0.25l38.25 0.01c14.48-29.07 22.32-44.26 26.75-52.51 4.44-8.25 13.45-24 20.02-35 6.57-11 18.82-30.35 27.21-43 8.4-12.65 21.01-30.65 28.04-40 7.02-9.35 16.64-21.72 21.37-27.5 4.73-5.77 13.32-15.88 19.1-22.45 5.78-6.58 21.45-23.23 34.82-37 13.37-13.78 31.6-31.99 40.5-40.48 8.9-8.48 21.36-19.97 27.69-25.52 6.33-5.56 18.02-15.52 26-22.13 7.98-6.62 19.23-15.67 25-20.1 5.77-4.44 17.92-13.35 27-19.82 9.08-6.46 22.8-15.89 30.5-20.96 7.7-5.06 20.3-13.04 28-17.72 7.7-4.68 21.2-12.47 30-17.31 8.8-4.83 25.22-13.41 36.5-19.06 11.28-5.64 30.4-14.52 42.5-19.72 12.1-5.21 29.42-12.28 38.5-15.71 9.08-3.44 25.95-9.38 37.5-13.2 11.55-3.83 27.97-8.92 36.5-11.33 8.53-2.4 22.92-6.23 32-8.5 9.08-2.28 23.7-5.65 32.5-7.51 8.8-1.86 25.22-4.96 36.5-6.91 11.28-1.94 29.28-4.67 40-6.07 10.72-1.39 28.72-3.41 40-4.48 11.28-1.07 28.15-2.52 37.5-3.21 10.22-0.75 36.73-1.26 66.5-1.28 31.41-0.02 55.53 0.44 66 1.26 9.08 0.7 23.7 1.96 32.5 2.79 8.8 0.83 21.17 2.19 27.5 3.03 6.33 0.84 18.47 2.64 27 4 8.53 1.36 23.6 4.06 33.5 6 9.9 1.94 27.22 5.75 38.5 8.48 11.28 2.72 25.45 6.33 31.5 8.01 6.05 1.68 20.22 6 31.5 9.58 11.28 3.59 30.63 10.34 43 15 12.37 4.66 28.35 10.97 35.5 14.02 7.15 3.05 22.45 9.99 34 15.43 11.55 5.45 29.1 14.23 39 19.53 9.9 5.29 28.13 15.69 40.5 23.1 12.37 7.41 32.63 20.3 45 28.64 12.37 8.34 29.47 20.37 38 26.73 8.53 6.36 22.7 17.33 31.5 24.38 8.8 7.05 22.05 18.03 29.45 24.41 7.4 6.37 20.23 17.72 28.5 25.22 8.28 7.5 25.87 24.6 39.09 38 13.23 13.4 29.22 30.21 35.55 37.36 6.33 7.15 14.89 17.05 19.04 22 4.15 4.95 12.45 15.3 18.46 23 6 7.7 15.24 20.08 20.54 27.5 5.29 7.42 15.24 22.05 22.1 32.5 6.86 10.45 16.55 25.98 21.54 34.5 4.98 8.53 13.71 24.29 19.39 35.03 5.69 10.74 13.49 26.16 17.34 34.26l7 14.73c58.51-0.02 75.5-0.36 75.51-0.77 0.01-0.41-2.84-7.05-6.33-14.75-3.49-7.7-10.64-22.55-15.89-33-5.24-10.45-13.24-25.75-17.77-34-4.54-8.25-13.66-24-20.29-35-6.63-11-17.9-28.77-25.04-39.5-7.15-10.72-18.89-27.55-26.1-37.38-7.2-9.83-18.72-24.92-25.59-33.52-6.88-8.61-17.9-21.92-24.5-29.59-6.6-7.67-17.13-19.58-23.41-26.47-6.27-6.9-21.79-22.91-34.5-35.59-12.7-12.68-30.32-29.55-39.15-37.5-8.83-7.95-22.78-20.1-31-27.01-8.22-6.9-19.44-16.17-24.94-20.6-5.5-4.42-17.2-13.42-26-19.99-8.8-6.58-20.5-15.13-26-19.01-5.5-3.88-18.1-12.44-28-19.03-9.9-6.58-24.75-16.03-33-21-8.25-4.96-23.33-13.66-33.5-19.33-10.17-5.66-28.17-15.08-40-20.93-11.83-5.85-28.47-13.71-37-17.48-8.53-3.76-24.72-10.57-36-15.13-11.28-4.56-33.33-12.58-49-17.83-15.67-5.24-36.6-11.77-46.5-14.51-9.9-2.73-25.2-6.77-34-8.97-8.8-2.2-22.53-5.35-30.5-7-7.97-1.65-21.92-4.36-31-6.03-9.08-1.67-22.58-3.93-30-5.02-7.42-1.1-18.67-2.68-25-3.51-6.33-0.84-18.7-2.19-27.5-3.02-8.8-0.82-22.08-1.96-29.5-2.52-7.42-0.56-22.72-1.47-34-2.03-11.28-0.55-35.13-0.94-53-0.85-17.88 0.08-40.15 0.51-49.5 0.95zm-948.25 1629.63c-13.34 0.15-24.24 0.61-24.23 1.02 0.01 0.41 2.14 4.35 4.72 8.75 2.58 4.4 9.16 15.2 14.6 24 5.45 8.8 14.65 22.97 20.44 31.5 5.79 8.53 15.48 22.25 21.53 30.5 6.04 8.25 15.5 20.63 21.01 27.5 5.51 6.88 15.22 18.57 21.59 26 6.36 7.43 16.25 18.68 21.98 25 5.72 6.32 20.44 22.07 32.72 35 12.27 12.93 33.69 34.55 47.6 48.05 13.91 13.51 30.7 29.48 37.3 35.5 6.61 6.02 17.41 15.7 24 21.51 6.6 5.81 19.41 16.76 28.49 24.35 9.08 7.59 23.85 19.49 32.84 26.44 8.99 6.96 24.51 18.65 34.5 25.98 9.99 7.33 29.18 20.66 42.66 29.63 13.48 8.98 33.73 21.84 45 28.59 11.27 6.75 29.5 17.22 40.5 23.26 11 6.03 31.48 16.67 45.5 23.62 14.02 6.95 34.95 16.74 46.5 21.75 11.55 5.01 26.4 11.22 33 13.79 6.6 2.58 16.72 6.42 22.5 8.55 5.78 2.12 16.35 5.92 23.5 8.44 7.15 2.52 20.87 7.01 30.5 9.97 9.62 2.97 24.03 7.21 32 9.42 7.97 2.21 24.85 6.49 37.5 9.51 12.65 3.02 29.97 6.85 38.5 8.52 8.53 1.67 24.95 4.6 36.5 6.51 11.55 1.91 30.22 4.62 41.5 6.03 11.28 1.41 28.15 3.23 37.5 4.04 9.35 0.82 25.33 2.04 35.5 2.72 10.59 0.7 39.66 1.24 68 1.25 30.19 0.02 56.52-0.47 67.5-1.24 9.9-0.7 27.9-2.16 40-3.23 12.1-1.08 29.65-2.89 39-4.03 9.35-1.14 27.35-3.64 40-5.56 12.65-1.93 29.08-4.61 36.5-5.98 7.42-1.36 24.08-4.73 37-7.5 12.92-2.76 32.95-7.43 44.5-10.36 11.55-2.94 27.53-7.23 35.5-9.53 7.97-2.31 22.15-6.67 31.5-9.7 9.35-3.03 25.78-8.66 36.5-12.52 10.72-3.86 28.72-10.74 40-15.28 11.28-4.55 29.28-12.22 40-17.06 10.72-4.84 29.85-14.03 42.5-20.43 12.65-6.41 29.3-15.16 37-19.46 7.7-4.3 22.78-13.03 33.5-19.41 10.72-6.38 30.75-19.1 44.5-28.26 13.75-9.15 33.1-22.6 43-29.88 9.9-7.29 22.69-16.9 28.41-21.37 5.73-4.47 18.55-14.92 28.5-23.22 9.95-8.3 26.64-22.69 37.09-31.98 10.45-9.29 30.75-28.6 45.11-42.91 14.36-14.31 32.81-33.45 41-42.52 8.2-9.07 19.42-21.68 24.95-28 5.53-6.32 15.66-18.25 22.51-26.5 6.85-8.25 17.88-21.97 24.51-30.5 6.64-8.53 17.47-22.7 24.07-31.5 6.6-8.8 16.95-22.97 23-31.5 6.05-8.53 17.3-24.95 25.01-36.5 7.71-11.55 16.34-24.71 19.18-29.25 2.84-4.54 5.16-8.47 5.16-8.75 0-0.28-22.16-0.48-49.25-0.46l-49.25 0.04c-14.72 21.17-24.87 35.22-32.04 44.87-7.17 9.65-17.27 22.95-22.43 29.55-5.17 6.6-15.46 19.43-22.88 28.5-7.42 9.07-21.01 25.05-30.2 35.5-9.18 10.45-24.74 27.4-34.58 37.67-9.83 10.27-25.52 26.03-34.87 35.01-9.35 8.98-21.5 20.41-27 25.4-5.5 4.98-16.3 14.43-24 21-7.7 6.56-20.75 17.32-29 23.91-8.25 6.58-23.78 18.47-34.5 26.4-10.72 7.94-29.4 21-41.5 29.03-12.1 8.03-30.78 19.82-41.5 26.22-10.72 6.39-26.7 15.56-35.5 20.38-8.8 4.82-26.58 14.05-39.5 20.53-12.92 6.47-30.92 15.01-40 18.97-9.08 3.96-24.6 10.49-34.5 14.52-9.9 4.02-25.42 9.99-34.5 13.26-9.08 3.27-24.83 8.68-35 12.02-10.17 3.33-29.08 9.06-42 12.73-12.92 3.66-32.72 8.84-44 11.5-11.28 2.67-27.03 6.25-35 7.95-7.97 1.7-24.85 4.85-37.5 7-12.65 2.15-30.42 4.83-39.5 5.95-9.08 1.13-23.7 2.72-32.5 3.54-8.8 0.82-30.29 2.62-47.75 4-17.46 1.38-38.16 2.51-46 2.5-7.84 0-22.8-0.44-33.25-0.99-10.45-0.54-24.85-1.45-32-2.02-7.15-0.57-20.2-1.72-29-2.57-8.8-0.84-23.42-2.41-32.5-3.48-9.08-1.07-25.5-3.32-36.5-5-11-1.69-28.33-4.63-38.5-6.54-10.17-1.92-25.92-5.07-35-7.01-9.08-1.93-24.6-5.54-34.5-8.01-9.9-2.47-23.63-6.07-30.5-7.99-6.88-1.92-21.95-6.43-33.5-10.02-11.55-3.6-29.78-9.7-40.5-13.56-10.72-3.87-25.13-9.27-32-12.01-6.88-2.74-19.03-7.81-27-11.28-7.97-3.46-20.58-9.06-28-12.45-7.42-3.38-23.17-11.14-35-17.23-11.83-6.09-27.58-14.46-35-18.58-7.42-4.13-18.45-10.46-24.5-14.06-6.05-3.61-17.08-10.37-24.5-15.04-7.42-4.66-18.9-12.09-25.5-16.5-6.6-4.41-18.75-12.82-27-18.69-8.25-5.87-23.33-17.14-33.5-25.04-10.17-7.91-25.25-19.99-33.5-26.87-8.25-6.87-19.27-16.32-24.5-20.99-5.23-4.68-17.83-16.23-28-25.67-10.17-9.45-26.83-25.66-37.01-36.03-10.18-10.37-27.34-28.31-38.13-39.86-10.79-11.55-26.24-28.43-34.34-37.5-8.1-9.07-19.8-22.8-26.01-30.5-6.2-7.7-15.95-20.53-21.65-28.5-5.7-7.97-15.09-21.79-20.86-30.7l-10.5-16.2c-38.75 0.28-60.91 0.48-74.25 0.63zm158.5 0c-11.41 0.15-20.76 0.61-20.77 1.02-0.01 0.41 5.28 8.63 11.76 18.25 6.47 9.63 16.45 23.8 22.17 31.5 5.72 7.7 14.24 18.72 18.94 24.5 4.7 5.78 13.74 16.35 20.09 23.5 6.35 7.15 22.57 24.06 36.05 37.58 13.48 13.52 32.85 32.2 43.04 41.5 10.19 9.31 25.04 22.57 33 29.48 7.96 6.91 21.67 18.4 30.47 25.53 8.8 7.13 21.62 17.27 28.5 22.52 6.87 5.26 18.8 14.06 26.5 19.56 7.7 5.49 22.1 15.39 32 21.99 9.9 6.61 24.52 15.97 32.5 20.82 7.98 4.84 23.05 13.71 33.5 19.71 10.45 5.99 30.25 16.47 44 23.27 13.75 6.81 31.3 15.17 39 18.57 7.7 3.41 22.78 9.71 33.5 14.01 10.72 4.3 27.15 10.58 36.5 13.95 9.35 3.38 24.2 8.39 33 11.14 8.8 2.75 26.58 7.88 39.5 11.4 12.92 3.53 30.7 7.97 39.5 9.87 8.8 1.9 24.1 5.03 34 6.96 9.9 1.92 27.45 4.87 39 6.54 11.55 1.68 29.78 3.95 40.5 5.04 10.72 1.1 30.53 2.73 44 3.63 15.49 1.03 39.21 1.66 64.5 1.72 22 0.06 48.78-0.45 59.5-1.12 10.72-0.67 29.4-2.13 41.5-3.25 12.1-1.11 32.69-3.35 45.75-4.97 13.06-1.62 34.21-4.73 47-6.89 12.79-2.17 31.8-5.74 42.25-7.93 10.45-2.19 24.85-5.37 32-7.08 7.15-1.71 22.9-5.83 35-9.15 12.1-3.33 33.92-10.02 48.5-14.86 14.58-4.85 36.4-12.74 48.5-17.53 12.1-4.79 29.65-12.08 39-16.2 9.35-4.12 27.12-12.55 39.5-18.74 12.37-6.2 28.8-14.78 36.5-19.08 7.7-4.3 20.75-11.85 29-16.78 8.25-4.92 24-14.92 35-22.21 11-7.3 25.25-17.03 31.68-21.63 6.42-4.6 18.79-13.85 27.5-20.54 8.7-6.7 21.44-16.87 28.32-22.62 6.87-5.74 17-14.38 22.5-19.19 5.5-4.81 19.16-17.36 30.35-27.88 11.19-10.53 28.56-27.92 38.6-38.64 10.04-10.72 22.26-24 27.15-29.51 4.9-5.51 13.66-15.63 19.48-22.5 5.82-6.87 15.76-19.02 22.09-26.99 6.33-7.97 16.68-21.47 22.98-30 6.31-8.53 14.71-20.11 18.66-25.75 3.95-5.64 7.19-10.47 7.19-10.75 0-0.28-18.56-0.51-41.25-0.53l-41.25-0.03c-5.41 7.41-11.02 14.74-15.94 21.06-4.93 6.32-14.42 18.03-21.09 26-6.67 7.97-19.27 22.38-28.01 32-8.74 9.63-24.91 26.5-35.95 37.5-11.03 11-26.57 25.89-34.53 33.08-7.97 7.19-21.91 19.29-30.98 26.88-9.07 7.59-25.28 20.4-36 28.46-10.72 8.07-26.47 19.43-35 25.25-8.53 5.82-20.45 13.71-26.5 17.52-6.05 3.82-19.78 12.07-30.5 18.34-10.72 6.27-32.55 17.97-48.5 25.99-15.95 8.02-35.75 17.45-44 20.94-8.25 3.49-23.33 9.69-33.5 13.76-10.17 4.08-29.08 10.96-42 15.28-12.92 4.33-29.58 9.68-37 11.88-7.42 2.2-18.45 5.34-24.5 6.98-6.05 1.64-17.97 4.62-26.5 6.62-8.53 2.01-22.7 5.17-31.5 7.03-8.8 1.86-25.45 4.95-37 6.88-11.55 1.93-25.95 4.19-32 5.02-6.05 0.83-23.6 2.63-39 4-15.4 1.38-38.58 3.25-51.5 4.17-17.15 1.22-29.04 1.5-44 1.02-11.28-0.36-27.25-1.1-35.5-1.63-8.25-0.54-20.63-1.45-27.5-2.02-6.88-0.58-20.83-1.95-31-3.05-10.17-1.1-29.08-3.58-42-5.51-12.92-1.94-30.7-4.86-39.5-6.5-8.8-1.65-26.13-5.26-38.5-8.04-12.38-2.78-31.28-7.47-42-10.42-10.72-2.95-25.8-7.34-33.5-9.75-7.7-2.42-21.42-6.97-30.5-10.13-9.08-3.16-22.35-7.99-29.5-10.74-7.15-2.75-19.97-7.93-28.5-11.51-8.53-3.58-23.15-10.11-32.5-14.51-9.35-4.4-26-12.74-37-18.54-11-5.81-24.27-13.03-29.5-16.06-5.23-3.03-14.67-8.65-21-12.5-6.33-3.84-19.6-12.38-29.5-18.98-9.9-6.6-23.4-15.85-30-20.57-6.6-4.72-16.95-12.38-23-17.03-6.05-4.64-16.6-12.98-23.44-18.52-6.84-5.55-19.66-16.41-28.5-24.14-8.83-7.73-24.61-22.19-35.06-32.13-10.45-9.94-29.38-28.6-42.06-41.45-12.68-12.85-27.29-28.32-32.45-34.37-5.17-6.05-15.43-19.1-22.81-29-7.38-9.9-13.59-18.56-13.8-19.25-0.29-0.96-5.34-1.2-21.63-1.02-11.69 0.12-30.59 0.35-42 0.5z"/>
		<path id="Path 4" class="s0" d="m1708.74 648.75c-5.69 22.81-7.35 30.93-6.45 31.46 0.66 0.39 4.81 1.74 9.21 2.99q8 2.28 16.16 2.29c7.61 0.01 8.41-0.19 12-3.06 2.11-1.69 5.33-5.29 7.15-8 1.82-2.71 4.21-7.85 5.3-11.43 1.1-3.58 2.27-9.2 2.6-12.5 0.36-3.5 0.11-7.87-0.58-10.5-0.65-2.48-2.64-6.25-4.41-8.39-1.77-2.15-5.02-4.79-7.22-5.88-2.2-1.08-8.87-3.27-14.81-4.85-5.95-1.59-10.92-2.88-11.05-2.88-0.12 0-3.68 13.84-7.9 30.75zm118.26 11.02c-2.47 0.99-5.85 2.73-7.5 3.87-1.65 1.13-4.65 4.27-6.66 6.96-2.02 2.7-4.83 8.39-6.25 12.65-1.43 4.26-2.59 9.89-2.6 12.5-0.01 2.61 0.67 7.11 1.5 10 0.92 3.2 2.98 6.86 5.26 9.37 2.06 2.27 5.55 5.14 7.75 6.39 2.2 1.25 6.47 2.82 9.5 3.51 3.15 0.71 7.43 0.95 10 0.57 2.47-0.36 6.53-1.57 9-2.68 2.47-1.11 5.58-3.01 6.89-4.22 1.32-1.2 4.15-4.89 6.3-8.19 2.15-3.3 4.62-8.48 5.49-11.5 0.86-3.02 1.53-8.42 1.48-12-0.06-4.78-0.75-7.89-2.62-11.75-1.44-2.98-4.37-6.75-6.79-8.72-2.34-1.9-6.61-4.38-9.5-5.5-2.89-1.11-7.84-2.26-11-2.54-4.18-0.38-6.98-0.03-10.25 1.28zm-703.48 14.82c-0.64 0.52-0.68 6.81-0.11 17.86 0.49 9.38 1.15 17.8 1.49 18.73 0.52 1.46 2.16 1.01 12.75-3.5 6.68-2.85 12.38-5.41 12.67-5.68 0.28-0.27-5.41-6.73-12.65-14.35-7.67-8.07-13.58-13.52-14.15-13.06zm807.2 40.84c-5.34 9.86-5.6 10.66-3.97 11.98 0.96 0.77 8.05 4.93 15.75 9.24 11.22 6.28 14.83 7.84 18.17 7.84 2.88 0.01 4.89-0.65 6.5-2.14 1.28-1.18 3.17-3.88 4.19-6 1.28-2.65 1.64-4.79 1.16-6.85-0.38-1.65-2.43-4.58-4.54-6.5-2.12-1.92-9.17-6.54-15.66-10.26-6.5-3.72-12.73-7.01-13.85-7.31-1.72-0.48-2.87 1.01-7.75 10zm-898.35-4.36c-1.18 0.52-8.02 4.43-15.22 8.69-7.19 4.26-12.94 7.97-12.78 8.24 0.17 0.27 2.74 4.44 5.72 9.26l5.41 8.77c5.42-3.31 10.56-6.36 14.91-8.9 4.36-2.55 9.87-6.32 12.25-8.38 2.87-2.48 4.55-4.85 4.95-7 0.38-2.07 0.02-4.43-1-6.5-0.89-1.79-2.51-3.7-3.61-4.25-1.1-0.55-3.46-0.97-5.25-0.94-1.79 0.04-4.21 0.49-5.38 1.01zm15.07 35.08c-3.27 1.73-9.88 5.55-14.69 8.5-4.81 2.94-8.75 5.58-8.75 5.85 0 0.27 1.96 3.54 4.36 7.25 2.41 3.71 5.11 8.21 6 10 0.9 1.79 2.09 3.25 2.64 3.25 0.55 0 6.96-3.54 14.25-7.86 7.29-4.32 14.29-9.16 15.56-10.75 1.27-1.59 2.56-4.02 2.86-5.39 0.3-1.38 0.23-3.63-0.17-5-0.39-1.38-2.24-3.96-4.11-5.75-2.75-2.64-4.2-3.25-7.7-3.25-2.9 0-6.24 1.02-10.25 3.15zm-116.45 41.1c-0.01 0.69 2.27 9.12 5.06 18.75 2.79 9.62 5.16 17.58 5.26 17.67 0.11 0.1 5.21-3.5 11.34-8 6.14-4.49 11.44-8.4 11.78-8.67 0.34-0.27-6.82-5.11-15.91-10.75-9.08-5.64-16.75-10.25-17.02-10.25-0.27 0-0.51 0.56-0.51 1.25zm1108.01 4.14c-4.68 2.9-11.76 7.37-15.75 9.94l-7.25 4.67c10.46 8.21 15.75 12.23 18.5 14.23l5 3.65c7.45-26.65 9.7-35.17 9.82-36.13 0.11-0.96-0.26-1.73-0.81-1.69-0.56 0.03-4.84 2.42-9.51 5.33zm-728.22 1579.24c-1.47 2.68-5.8 10.05-9.64 16.37-3.83 6.32-6.74 11.72-6.46 12 0.28 0.28 6.09 1.4 12.9 2.5 10.79 1.74 12.39 1.81 12.42 0.5 0.02-0.82-1.17-8.93-2.65-18-1.47-9.07-2.96-16.89-3.29-17.37-0.34-0.48-1.82 1.32-3.28 4z"/>
	</g>
</svg>